ISO-10303-21;
HEADER;
/* Generated by software containing ST-Developer
 * from STEP Tools, Inc. (www.steptools.com) 
 */

FILE_DESCRIPTION(
/* description */ (''),
/* implementation_level */ '2;1');

FILE_NAME(
/* name */ 'Bottom Pressure Plate.step',
/* time_stamp */ '2026-04-08T13:57:30+02:00',
/* author */ (''),
/* organization */ (''),
/* preprocessor_version */ 'ST-DEVELOPER v20.1',
/* originating_system */ 'Autodesk Translation Framework v14.24.0.0',
/* authorisation */ '');

FILE_SCHEMA (('AUTOMOTIVE_DESIGN { 1 0 10303 214 3 1 1 }'));
ENDSEC;

DATA;
#10=MECHANICAL_DESIGN_GEOMETRIC_PRESENTATION_REPRESENTATION('',(#13),#888);
#11=SHAPE_REPRESENTATION_RELATIONSHIP('SRR','None',#895,#12);
#12=ADVANCED_BREP_SHAPE_REPRESENTATION('',(#14),#887);
#13=STYLED_ITEM('',(#904),#14);
#14=MANIFOLD_SOLID_BREP('Bottom Pressure Plate',#544);
#15=CYLINDRICAL_SURFACE('',#577,5.25);
#16=CYLINDRICAL_SURFACE('',#580,5.25);
#17=CYLINDRICAL_SURFACE('',#583,5.25);
#18=CYLINDRICAL_SURFACE('',#585,5.25);
#19=FACE_BOUND('',#64,.T.);
#20=FACE_BOUND('',#84,.T.);
#21=CIRCLE('',#564,5.25);
#22=CIRCLE('',#565,5.25);
#23=CIRCLE('',#575,5.25);
#24=CIRCLE('',#576,5.25);
#25=CIRCLE('',#578,5.25);
#26=CIRCLE('',#581,5.25);
#27=CIRCLE('',#584,5.25);
#28=CIRCLE('',#586,5.25);
#29=FACE_OUTER_BOUND('',#56,.T.);
#30=FACE_OUTER_BOUND('',#57,.T.);
#31=FACE_OUTER_BOUND('',#58,.T.);
#32=FACE_OUTER_BOUND('',#59,.T.);
#33=FACE_OUTER_BOUND('',#60,.T.);
#34=FACE_OUTER_BOUND('',#61,.T.);
#35=FACE_OUTER_BOUND('',#62,.T.);
#36=FACE_OUTER_BOUND('',#63,.T.);
#37=FACE_OUTER_BOUND('',#65,.T.);
#38=FACE_OUTER_BOUND('',#66,.T.);
#39=FACE_OUTER_BOUND('',#67,.T.);
#40=FACE_OUTER_BOUND('',#68,.T.);
#41=FACE_OUTER_BOUND('',#69,.T.);
#42=FACE_OUTER_BOUND('',#70,.T.);
#43=FACE_OUTER_BOUND('',#71,.T.);
#44=FACE_OUTER_BOUND('',#72,.T.);
#45=FACE_OUTER_BOUND('',#73,.T.);
#46=FACE_OUTER_BOUND('',#74,.T.);
#47=FACE_OUTER_BOUND('',#75,.T.);
#48=FACE_OUTER_BOUND('',#76,.T.);
#49=FACE_OUTER_BOUND('',#77,.T.);
#50=FACE_OUTER_BOUND('',#78,.T.);
#51=FACE_OUTER_BOUND('',#79,.T.);
#52=FACE_OUTER_BOUND('',#80,.T.);
#53=FACE_OUTER_BOUND('',#81,.T.);
#54=FACE_OUTER_BOUND('',#82,.T.);
#55=FACE_OUTER_BOUND('',#83,.T.);
#56=EDGE_LOOP('',(#344,#345,#346));
#57=EDGE_LOOP('',(#347,#348,#349));
#58=EDGE_LOOP('',(#350,#351,#352,#353,#354));
#59=EDGE_LOOP('',(#355,#356,#357,#358,#359,#360));
#60=EDGE_LOOP('',(#361,#362,#363,#364,#365));
#61=EDGE_LOOP('',(#366,#367,#368,#369,#370,#371,#372,#373,#374,#375));
#62=EDGE_LOOP('',(#376,#377,#378,#379,#380,#381));
#63=EDGE_LOOP('',(#382,#383,#384,#385));
#64=EDGE_LOOP('',(#386,#387,#388,#389));
#65=EDGE_LOOP('',(#390,#391,#392,#393));
#66=EDGE_LOOP('',(#394,#395,#396,#397));
#67=EDGE_LOOP('',(#398,#399,#400,#401));
#68=EDGE_LOOP('',(#402,#403,#404,#405));
#69=EDGE_LOOP('',(#406,#407,#408,#409,#410,#411));
#70=EDGE_LOOP('',(#412,#413,#414,#415,#416,#417,#418,#419));
#71=EDGE_LOOP('',(#420,#421,#422,#423,#424,#425,#426,#427,#428,#429));
#72=EDGE_LOOP('',(#430,#431,#432,#433));
#73=EDGE_LOOP('',(#434,#435,#436,#437));
#74=EDGE_LOOP('',(#438,#439,#440,#441));
#75=EDGE_LOOP('',(#442,#443,#444,#445));
#76=EDGE_LOOP('',(#446,#447,#448,#449));
#77=EDGE_LOOP('',(#450,#451,#452,#453));
#78=EDGE_LOOP('',(#454,#455,#456,#457));
#79=EDGE_LOOP('',(#458,#459,#460,#461));
#80=EDGE_LOOP('',(#462,#463,#464,#465));
#81=EDGE_LOOP('',(#466,#467,#468,#469,#470,#471,#472,#473));
#82=EDGE_LOOP('',(#474,#475,#476,#477));
#83=EDGE_LOOP('',(#478,#479,#480,#481,#482,#483,#484,#485,#486,#487,#488,
#489));
#84=EDGE_LOOP('',(#490,#491,#492,#493));
#85=LINE('',#736,#152);
#86=LINE('',#738,#153);
#87=LINE('',#739,#154);
#88=LINE('',#743,#155);
#89=LINE('',#745,#156);
#90=LINE('',#746,#157);
#91=LINE('',#750,#158);
#92=LINE('',#752,#159);
#93=LINE('',#753,#160);
#94=LINE('',#754,#161);
#95=LINE('',#757,#162);
#96=LINE('',#759,#163);
#97=LINE('',#761,#164);
#98=LINE('',#763,#165);
#99=LINE('',#764,#166);
#100=LINE('',#767,#167);
#101=LINE('',#768,#168);
#102=LINE('',#769,#169);
#103=LINE('',#772,#170);
#104=LINE('',#774,#171);
#105=LINE('',#776,#172);
#106=LINE('',#780,#173);
#107=LINE('',#784,#174);
#108=LINE('',#785,#175);
#109=LINE('',#788,#176);
#110=LINE('',#789,#177);
#111=LINE('',#792,#178);
#112=LINE('',#793,#179);
#113=LINE('',#796,#180);
#114=LINE('',#798,#181);
#115=LINE('',#800,#182);
#116=LINE('',#801,#183);
#117=LINE('',#804,#184);
#118=LINE('',#806,#185);
#119=LINE('',#807,#186);
#120=LINE('',#810,#187);
#121=LINE('',#811,#188);
#122=LINE('',#814,#189);
#123=LINE('',#815,#190);
#124=LINE('',#817,#191);
#125=LINE('',#820,#192);
#126=LINE('',#821,#193);
#127=LINE('',#824,#194);
#128=LINE('',#826,#195);
#129=LINE('',#828,#196);
#130=LINE('',#829,#197);
#131=LINE('',#832,#198);
#132=LINE('',#834,#199);
#133=LINE('',#838,#200);
#134=LINE('',#841,#201);
#135=LINE('',#846,#202);
#136=LINE('',#847,#203);
#137=LINE('',#850,#204);
#138=LINE('',#851,#205);
#139=LINE('',#855,#206);
#140=LINE('',#859,#207);
#141=LINE('',#860,#208);
#142=LINE('',#861,#209);
#143=LINE('',#865,#210);
#144=LINE('',#869,#211);
#145=LINE('',#872,#212);
#146=LINE('',#873,#213);
#147=LINE('',#875,#214);
#148=LINE('',#878,#215);
#149=LINE('',#879,#216);
#150=LINE('',#881,#217);
#151=LINE('',#883,#218);
#152=VECTOR('',#597,10.);
#153=VECTOR('',#598,10.);
#154=VECTOR('',#599,10.);
#155=VECTOR('',#602,10.);
#156=VECTOR('',#603,10.);
#157=VECTOR('',#604,10.);
#158=VECTOR('',#607,10.);
#159=VECTOR('',#608,10.);
#160=VECTOR('',#609,10.);
#161=VECTOR('',#610,10.);
#162=VECTOR('',#613,10.);
#163=VECTOR('',#614,10.);
#164=VECTOR('',#615,10.);
#165=VECTOR('',#616,10.);
#166=VECTOR('',#617,10.);
#167=VECTOR('',#620,10.);
#168=VECTOR('',#621,10.);
#169=VECTOR('',#622,10.);
#170=VECTOR('',#625,10.);
#171=VECTOR('',#626,10.);
#172=VECTOR('',#627,10.);
#173=VECTOR('',#630,10.);
#174=VECTOR('',#633,10.);
#175=VECTOR('',#634,10.);
#176=VECTOR('',#637,10.);
#177=VECTOR('',#638,10.);
#178=VECTOR('',#641,10.);
#179=VECTOR('',#642,10.);
#180=VECTOR('',#643,10.);
#181=VECTOR('',#644,10.);
#182=VECTOR('',#645,10.);
#183=VECTOR('',#646,10.);
#184=VECTOR('',#649,10.);
#185=VECTOR('',#650,10.);
#186=VECTOR('',#651,10.);
#187=VECTOR('',#654,10.);
#188=VECTOR('',#655,10.);
#189=VECTOR('',#658,10.);
#190=VECTOR('',#659,10.);
#191=VECTOR('',#662,10.);
#192=VECTOR('',#665,10.);
#193=VECTOR('',#666,10.);
#194=VECTOR('',#669,10.);
#195=VECTOR('',#670,10.);
#196=VECTOR('',#671,10.);
#197=VECTOR('',#672,10.);
#198=VECTOR('',#675,10.);
#199=VECTOR('',#676,10.);
#200=VECTOR('',#679,10.);
#201=VECTOR('',#682,10.);
#202=VECTOR('',#687,10.);
#203=VECTOR('',#688,10.);
#204=VECTOR('',#691,10.);
#205=VECTOR('',#692,10.);
#206=VECTOR('',#697,10.);
#207=VECTOR('',#700,10.);
#208=VECTOR('',#701,10.);
#209=VECTOR('',#702,10.);
#210=VECTOR('',#707,10.);
#211=VECTOR('',#712,10.);
#212=VECTOR('',#715,10.);
#213=VECTOR('',#716,10.);
#214=VECTOR('',#719,10.);
#215=VECTOR('',#722,10.);
#216=VECTOR('',#723,10.);
#217=VECTOR('',#726,10.);
#218=VECTOR('',#729,10.);
#219=VERTEX_POINT('',#734);
#220=VERTEX_POINT('',#735);
#221=VERTEX_POINT('',#737);
#222=VERTEX_POINT('',#741);
#223=VERTEX_POINT('',#742);
#224=VERTEX_POINT('',#744);
#225=VERTEX_POINT('',#748);
#226=VERTEX_POINT('',#749);
#227=VERTEX_POINT('',#751);
#228=VERTEX_POINT('',#756);
#229=VERTEX_POINT('',#758);
#230=VERTEX_POINT('',#760);
#231=VERTEX_POINT('',#762);
#232=VERTEX_POINT('',#766);
#233=VERTEX_POINT('',#771);
#234=VERTEX_POINT('',#773);
#235=VERTEX_POINT('',#775);
#236=VERTEX_POINT('',#777);
#237=VERTEX_POINT('',#779);
#238=VERTEX_POINT('',#781);
#239=VERTEX_POINT('',#783);
#240=VERTEX_POINT('',#787);
#241=VERTEX_POINT('',#791);
#242=VERTEX_POINT('',#794);
#243=VERTEX_POINT('',#795);
#244=VERTEX_POINT('',#797);
#245=VERTEX_POINT('',#799);
#246=VERTEX_POINT('',#803);
#247=VERTEX_POINT('',#805);
#248=VERTEX_POINT('',#809);
#249=VERTEX_POINT('',#813);
#250=VERTEX_POINT('',#819);
#251=VERTEX_POINT('',#823);
#252=VERTEX_POINT('',#825);
#253=VERTEX_POINT('',#827);
#254=VERTEX_POINT('',#831);
#255=VERTEX_POINT('',#833);
#256=VERTEX_POINT('',#835);
#257=VERTEX_POINT('',#837);
#258=VERTEX_POINT('',#839);
#259=VERTEX_POINT('',#843);
#260=VERTEX_POINT('',#844);
#261=VERTEX_POINT('',#849);
#262=VERTEX_POINT('',#853);
#263=VERTEX_POINT('',#857);
#264=VERTEX_POINT('',#858);
#265=VERTEX_POINT('',#863);
#266=VERTEX_POINT('',#867);
#267=VERTEX_POINT('',#871);
#268=VERTEX_POINT('',#877);
#269=EDGE_CURVE('',#219,#220,#85,.T.);
#270=EDGE_CURVE('',#221,#219,#86,.T.);
#271=EDGE_CURVE('',#220,#221,#87,.T.);
#272=EDGE_CURVE('',#222,#223,#88,.T.);
#273=EDGE_CURVE('',#222,#224,#89,.T.);
#274=EDGE_CURVE('',#223,#224,#90,.T.);
#275=EDGE_CURVE('',#225,#226,#91,.T.);
#276=EDGE_CURVE('',#225,#227,#92,.T.);
#277=EDGE_CURVE('',#224,#227,#93,.T.);
#278=EDGE_CURVE('',#226,#222,#94,.T.);
#279=EDGE_CURVE('',#228,#225,#95,.T.);
#280=EDGE_CURVE('',#228,#229,#96,.T.);
#281=EDGE_CURVE('',#230,#229,#97,.T.);
#282=EDGE_CURVE('',#231,#230,#98,.T.);
#283=EDGE_CURVE('',#227,#231,#99,.T.);
#284=EDGE_CURVE('',#232,#228,#100,.T.);
#285=EDGE_CURVE('',#220,#232,#101,.T.);
#286=EDGE_CURVE('',#229,#221,#102,.T.);
#287=EDGE_CURVE('',#223,#233,#103,.T.);
#288=EDGE_CURVE('',#234,#233,#104,.T.);
#289=EDGE_CURVE('',#235,#234,#105,.T.);
#290=EDGE_CURVE('',#235,#236,#21,.T.);
#291=EDGE_CURVE('',#236,#237,#106,.T.);
#292=EDGE_CURVE('',#237,#238,#22,.T.);
#293=EDGE_CURVE('',#239,#238,#107,.T.);
#294=EDGE_CURVE('',#226,#239,#108,.T.);
#295=EDGE_CURVE('',#231,#240,#109,.T.);
#296=EDGE_CURVE('',#233,#240,#110,.T.);
#297=EDGE_CURVE('',#241,#230,#111,.T.);
#298=EDGE_CURVE('',#240,#241,#112,.T.);
#299=EDGE_CURVE('',#242,#243,#113,.T.);
#300=EDGE_CURVE('',#244,#242,#114,.T.);
#301=EDGE_CURVE('',#245,#244,#115,.T.);
#302=EDGE_CURVE('',#243,#245,#116,.T.);
#303=EDGE_CURVE('',#243,#246,#117,.T.);
#304=EDGE_CURVE('',#247,#246,#118,.T.);
#305=EDGE_CURVE('',#242,#247,#119,.T.);
#306=EDGE_CURVE('',#248,#247,#120,.T.);
#307=EDGE_CURVE('',#244,#248,#121,.T.);
#308=EDGE_CURVE('',#245,#249,#122,.T.);
#309=EDGE_CURVE('',#246,#249,#123,.T.);
#310=EDGE_CURVE('',#249,#248,#124,.T.);
#311=EDGE_CURVE('',#250,#219,#125,.T.);
#312=EDGE_CURVE('',#241,#250,#126,.T.);
#313=EDGE_CURVE('',#250,#251,#127,.T.);
#314=EDGE_CURVE('',#251,#252,#128,.T.);
#315=EDGE_CURVE('',#253,#252,#129,.T.);
#316=EDGE_CURVE('',#234,#253,#130,.T.);
#317=EDGE_CURVE('',#254,#232,#131,.T.);
#318=EDGE_CURVE('',#255,#254,#132,.T.);
#319=EDGE_CURVE('',#255,#256,#23,.T.);
#320=EDGE_CURVE('',#256,#257,#133,.T.);
#321=EDGE_CURVE('',#257,#258,#24,.T.);
#322=EDGE_CURVE('',#251,#258,#134,.T.);
#323=EDGE_CURVE('',#259,#260,#25,.T.);
#324=EDGE_CURVE('',#236,#259,#135,.T.);
#325=EDGE_CURVE('',#260,#235,#136,.T.);
#326=EDGE_CURVE('',#261,#259,#137,.T.);
#327=EDGE_CURVE('',#237,#261,#138,.T.);
#328=EDGE_CURVE('',#262,#261,#26,.T.);
#329=EDGE_CURVE('',#238,#262,#139,.T.);
#330=EDGE_CURVE('',#263,#264,#140,.T.);
#331=EDGE_CURVE('',#257,#263,#141,.T.);
#332=EDGE_CURVE('',#256,#264,#142,.T.);
#333=EDGE_CURVE('',#264,#265,#27,.T.);
#334=EDGE_CURVE('',#265,#255,#143,.T.);
#335=EDGE_CURVE('',#266,#263,#28,.T.);
#336=EDGE_CURVE('',#258,#266,#144,.T.);
#337=EDGE_CURVE('',#267,#262,#145,.T.);
#338=EDGE_CURVE('',#239,#267,#146,.T.);
#339=EDGE_CURVE('',#260,#253,#147,.T.);
#340=EDGE_CURVE('',#254,#268,#148,.T.);
#341=EDGE_CURVE('',#265,#268,#149,.T.);
#342=EDGE_CURVE('',#268,#267,#150,.T.);
#343=EDGE_CURVE('',#252,#266,#151,.T.);
#344=ORIENTED_EDGE('',*,*,#269,.F.);
#345=ORIENTED_EDGE('',*,*,#270,.F.);
#346=ORIENTED_EDGE('',*,*,#271,.F.);
#347=ORIENTED_EDGE('',*,*,#272,.F.);
#348=ORIENTED_EDGE('',*,*,#273,.T.);
#349=ORIENTED_EDGE('',*,*,#274,.F.);
#350=ORIENTED_EDGE('',*,*,#275,.F.);
#351=ORIENTED_EDGE('',*,*,#276,.T.);
#352=ORIENTED_EDGE('',*,*,#277,.F.);
#353=ORIENTED_EDGE('',*,*,#273,.F.);
#354=ORIENTED_EDGE('',*,*,#278,.F.);
#355=ORIENTED_EDGE('',*,*,#279,.F.);
#356=ORIENTED_EDGE('',*,*,#280,.T.);
#357=ORIENTED_EDGE('',*,*,#281,.F.);
#358=ORIENTED_EDGE('',*,*,#282,.F.);
#359=ORIENTED_EDGE('',*,*,#283,.F.);
#360=ORIENTED_EDGE('',*,*,#276,.F.);
#361=ORIENTED_EDGE('',*,*,#284,.F.);
#362=ORIENTED_EDGE('',*,*,#285,.F.);
#363=ORIENTED_EDGE('',*,*,#271,.T.);
#364=ORIENTED_EDGE('',*,*,#286,.F.);
#365=ORIENTED_EDGE('',*,*,#280,.F.);
#366=ORIENTED_EDGE('',*,*,#278,.T.);
#367=ORIENTED_EDGE('',*,*,#272,.T.);
#368=ORIENTED_EDGE('',*,*,#287,.T.);
#369=ORIENTED_EDGE('',*,*,#288,.F.);
#370=ORIENTED_EDGE('',*,*,#289,.F.);
#371=ORIENTED_EDGE('',*,*,#290,.T.);
#372=ORIENTED_EDGE('',*,*,#291,.T.);
#373=ORIENTED_EDGE('',*,*,#292,.T.);
#374=ORIENTED_EDGE('',*,*,#293,.F.);
#375=ORIENTED_EDGE('',*,*,#294,.F.);
#376=ORIENTED_EDGE('',*,*,#274,.T.);
#377=ORIENTED_EDGE('',*,*,#277,.T.);
#378=ORIENTED_EDGE('',*,*,#283,.T.);
#379=ORIENTED_EDGE('',*,*,#295,.T.);
#380=ORIENTED_EDGE('',*,*,#296,.F.);
#381=ORIENTED_EDGE('',*,*,#287,.F.);
#382=ORIENTED_EDGE('',*,*,#282,.T.);
#383=ORIENTED_EDGE('',*,*,#297,.F.);
#384=ORIENTED_EDGE('',*,*,#298,.F.);
#385=ORIENTED_EDGE('',*,*,#295,.F.);
#386=ORIENTED_EDGE('',*,*,#299,.F.);
#387=ORIENTED_EDGE('',*,*,#300,.F.);
#388=ORIENTED_EDGE('',*,*,#301,.F.);
#389=ORIENTED_EDGE('',*,*,#302,.F.);
#390=ORIENTED_EDGE('',*,*,#299,.T.);
#391=ORIENTED_EDGE('',*,*,#303,.T.);
#392=ORIENTED_EDGE('',*,*,#304,.F.);
#393=ORIENTED_EDGE('',*,*,#305,.F.);
#394=ORIENTED_EDGE('',*,*,#300,.T.);
#395=ORIENTED_EDGE('',*,*,#305,.T.);
#396=ORIENTED_EDGE('',*,*,#306,.F.);
#397=ORIENTED_EDGE('',*,*,#307,.F.);
#398=ORIENTED_EDGE('',*,*,#302,.T.);
#399=ORIENTED_EDGE('',*,*,#308,.T.);
#400=ORIENTED_EDGE('',*,*,#309,.F.);
#401=ORIENTED_EDGE('',*,*,#303,.F.);
#402=ORIENTED_EDGE('',*,*,#301,.T.);
#403=ORIENTED_EDGE('',*,*,#307,.T.);
#404=ORIENTED_EDGE('',*,*,#310,.F.);
#405=ORIENTED_EDGE('',*,*,#308,.F.);
#406=ORIENTED_EDGE('',*,*,#270,.T.);
#407=ORIENTED_EDGE('',*,*,#311,.F.);
#408=ORIENTED_EDGE('',*,*,#312,.F.);
#409=ORIENTED_EDGE('',*,*,#297,.T.);
#410=ORIENTED_EDGE('',*,*,#281,.T.);
#411=ORIENTED_EDGE('',*,*,#286,.T.);
#412=ORIENTED_EDGE('',*,*,#296,.T.);
#413=ORIENTED_EDGE('',*,*,#298,.T.);
#414=ORIENTED_EDGE('',*,*,#312,.T.);
#415=ORIENTED_EDGE('',*,*,#313,.T.);
#416=ORIENTED_EDGE('',*,*,#314,.T.);
#417=ORIENTED_EDGE('',*,*,#315,.F.);
#418=ORIENTED_EDGE('',*,*,#316,.F.);
#419=ORIENTED_EDGE('',*,*,#288,.T.);
#420=ORIENTED_EDGE('',*,*,#285,.T.);
#421=ORIENTED_EDGE('',*,*,#317,.F.);
#422=ORIENTED_EDGE('',*,*,#318,.F.);
#423=ORIENTED_EDGE('',*,*,#319,.T.);
#424=ORIENTED_EDGE('',*,*,#320,.T.);
#425=ORIENTED_EDGE('',*,*,#321,.T.);
#426=ORIENTED_EDGE('',*,*,#322,.F.);
#427=ORIENTED_EDGE('',*,*,#313,.F.);
#428=ORIENTED_EDGE('',*,*,#311,.T.);
#429=ORIENTED_EDGE('',*,*,#269,.T.);
#430=ORIENTED_EDGE('',*,*,#323,.F.);
#431=ORIENTED_EDGE('',*,*,#324,.F.);
#432=ORIENTED_EDGE('',*,*,#290,.F.);
#433=ORIENTED_EDGE('',*,*,#325,.F.);
#434=ORIENTED_EDGE('',*,*,#326,.F.);
#435=ORIENTED_EDGE('',*,*,#327,.F.);
#436=ORIENTED_EDGE('',*,*,#291,.F.);
#437=ORIENTED_EDGE('',*,*,#324,.T.);
#438=ORIENTED_EDGE('',*,*,#328,.F.);
#439=ORIENTED_EDGE('',*,*,#329,.F.);
#440=ORIENTED_EDGE('',*,*,#292,.F.);
#441=ORIENTED_EDGE('',*,*,#327,.T.);
#442=ORIENTED_EDGE('',*,*,#330,.F.);
#443=ORIENTED_EDGE('',*,*,#331,.F.);
#444=ORIENTED_EDGE('',*,*,#320,.F.);
#445=ORIENTED_EDGE('',*,*,#332,.T.);
#446=ORIENTED_EDGE('',*,*,#333,.F.);
#447=ORIENTED_EDGE('',*,*,#332,.F.);
#448=ORIENTED_EDGE('',*,*,#319,.F.);
#449=ORIENTED_EDGE('',*,*,#334,.F.);
#450=ORIENTED_EDGE('',*,*,#335,.F.);
#451=ORIENTED_EDGE('',*,*,#336,.F.);
#452=ORIENTED_EDGE('',*,*,#321,.F.);
#453=ORIENTED_EDGE('',*,*,#331,.T.);
#454=ORIENTED_EDGE('',*,*,#329,.T.);
#455=ORIENTED_EDGE('',*,*,#337,.F.);
#456=ORIENTED_EDGE('',*,*,#338,.F.);
#457=ORIENTED_EDGE('',*,*,#293,.T.);
#458=ORIENTED_EDGE('',*,*,#325,.T.);
#459=ORIENTED_EDGE('',*,*,#289,.T.);
#460=ORIENTED_EDGE('',*,*,#316,.T.);
#461=ORIENTED_EDGE('',*,*,#339,.F.);
#462=ORIENTED_EDGE('',*,*,#334,.T.);
#463=ORIENTED_EDGE('',*,*,#318,.T.);
#464=ORIENTED_EDGE('',*,*,#340,.T.);
#465=ORIENTED_EDGE('',*,*,#341,.F.);
#466=ORIENTED_EDGE('',*,*,#275,.T.);
#467=ORIENTED_EDGE('',*,*,#294,.T.);
#468=ORIENTED_EDGE('',*,*,#338,.T.);
#469=ORIENTED_EDGE('',*,*,#342,.F.);
#470=ORIENTED_EDGE('',*,*,#340,.F.);
#471=ORIENTED_EDGE('',*,*,#317,.T.);
#472=ORIENTED_EDGE('',*,*,#284,.T.);
#473=ORIENTED_EDGE('',*,*,#279,.T.);
#474=ORIENTED_EDGE('',*,*,#336,.T.);
#475=ORIENTED_EDGE('',*,*,#343,.F.);
#476=ORIENTED_EDGE('',*,*,#314,.F.);
#477=ORIENTED_EDGE('',*,*,#322,.T.);
#478=ORIENTED_EDGE('',*,*,#323,.T.);
#479=ORIENTED_EDGE('',*,*,#339,.T.);
#480=ORIENTED_EDGE('',*,*,#315,.T.);
#481=ORIENTED_EDGE('',*,*,#343,.T.);
#482=ORIENTED_EDGE('',*,*,#335,.T.);
#483=ORIENTED_EDGE('',*,*,#330,.T.);
#484=ORIENTED_EDGE('',*,*,#333,.T.);
#485=ORIENTED_EDGE('',*,*,#341,.T.);
#486=ORIENTED_EDGE('',*,*,#342,.T.);
#487=ORIENTED_EDGE('',*,*,#337,.T.);
#488=ORIENTED_EDGE('',*,*,#328,.T.);
#489=ORIENTED_EDGE('',*,*,#326,.T.);
#490=ORIENTED_EDGE('',*,*,#304,.T.);
#491=ORIENTED_EDGE('',*,*,#309,.T.);
#492=ORIENTED_EDGE('',*,*,#310,.T.);
#493=ORIENTED_EDGE('',*,*,#306,.T.);
#494=PLANE('',#558);
#495=PLANE('',#559);
#496=PLANE('',#560);
#497=PLANE('',#561);
#498=PLANE('',#562);
#499=PLANE('',#563);
#500=PLANE('',#566);
#501=PLANE('',#567);
#502=PLANE('',#568);
#503=PLANE('',#569);
#504=PLANE('',#570);
#505=PLANE('',#571);
#506=PLANE('',#572);
#507=PLANE('',#573);
#508=PLANE('',#574);
#509=PLANE('',#579);
#510=PLANE('',#582);
#511=PLANE('',#587);
#512=PLANE('',#588);
#513=PLANE('',#589);
#514=PLANE('',#590);
#515=PLANE('',#591);
#516=PLANE('',#592);
#517=ADVANCED_FACE('',(#29),#494,.F.);
#518=ADVANCED_FACE('',(#30),#495,.F.);
#519=ADVANCED_FACE('',(#31),#496,.F.);
#520=ADVANCED_FACE('',(#32),#497,.F.);
#521=ADVANCED_FACE('',(#33),#498,.F.);
#522=ADVANCED_FACE('',(#34),#499,.T.);
#523=ADVANCED_FACE('',(#35),#500,.F.);
#524=ADVANCED_FACE('',(#36,#19),#501,.F.);
#525=ADVANCED_FACE('',(#37),#502,.F.);
#526=ADVANCED_FACE('',(#38),#503,.F.);
#527=ADVANCED_FACE('',(#39),#504,.F.);
#528=ADVANCED_FACE('',(#40),#505,.F.);
#529=ADVANCED_FACE('',(#41),#506,.F.);
#530=ADVANCED_FACE('',(#42),#507,.T.);
#531=ADVANCED_FACE('',(#43),#508,.T.);
#532=ADVANCED_FACE('',(#44),#15,.F.);
#533=ADVANCED_FACE('',(#45),#509,.F.);
#534=ADVANCED_FACE('',(#46),#16,.F.);
#535=ADVANCED_FACE('',(#47),#510,.F.);
#536=ADVANCED_FACE('',(#48),#17,.F.);
#537=ADVANCED_FACE('',(#49),#18,.F.);
#538=ADVANCED_FACE('',(#50),#511,.T.);
#539=ADVANCED_FACE('',(#51),#512,.T.);
#540=ADVANCED_FACE('',(#52),#513,.T.);
#541=ADVANCED_FACE('',(#53),#514,.T.);
#542=ADVANCED_FACE('',(#54),#515,.T.);
#543=ADVANCED_FACE('',(#55,#20),#516,.T.);
#544=CLOSED_SHELL('',(#517,#518,#519,#520,#521,#522,#523,#524,#525,#526,
#527,#528,#529,#530,#531,#532,#533,#534,#535,#536,#537,#538,#539,#540,#541,
#542,#543));
#545=DERIVED_UNIT_ELEMENT(#547,1.);
#546=DERIVED_UNIT_ELEMENT(#890,-3.);
#547=(
MASS_UNIT()
NAMED_UNIT(*)
SI_UNIT(.KILO.,.GRAM.)
);
#548=DERIVED_UNIT((#545,#546));
#549=MEASURE_REPRESENTATION_ITEM('density measure',
POSITIVE_RATIO_MEASURE(7850.),#548);
#550=PROPERTY_DEFINITION_REPRESENTATION(#555,#552);
#551=PROPERTY_DEFINITION_REPRESENTATION(#556,#553);
#552=REPRESENTATION('material name',(#554),#887);
#553=REPRESENTATION('density',(#549),#887);
#554=DESCRIPTIVE_REPRESENTATION_ITEM('Steel','Steel');
#555=PROPERTY_DEFINITION('material property','material name',#897);
#556=PROPERTY_DEFINITION('material property','density of part',#897);
#557=AXIS2_PLACEMENT_3D('',#732,#593,#594);
#558=AXIS2_PLACEMENT_3D('',#733,#595,#596);
#559=AXIS2_PLACEMENT_3D('',#740,#600,#601);
#560=AXIS2_PLACEMENT_3D('',#747,#605,#606);
#561=AXIS2_PLACEMENT_3D('',#755,#611,#612);
#562=AXIS2_PLACEMENT_3D('',#765,#618,#619);
#563=AXIS2_PLACEMENT_3D('',#770,#623,#624);
#564=AXIS2_PLACEMENT_3D('',#778,#628,#629);
#565=AXIS2_PLACEMENT_3D('',#782,#631,#632);
#566=AXIS2_PLACEMENT_3D('',#786,#635,#636);
#567=AXIS2_PLACEMENT_3D('',#790,#639,#640);
#568=AXIS2_PLACEMENT_3D('',#802,#647,#648);
#569=AXIS2_PLACEMENT_3D('',#808,#652,#653);
#570=AXIS2_PLACEMENT_3D('',#812,#656,#657);
#571=AXIS2_PLACEMENT_3D('',#816,#660,#661);
#572=AXIS2_PLACEMENT_3D('',#818,#663,#664);
#573=AXIS2_PLACEMENT_3D('',#822,#667,#668);
#574=AXIS2_PLACEMENT_3D('',#830,#673,#674);
#575=AXIS2_PLACEMENT_3D('',#836,#677,#678);
#576=AXIS2_PLACEMENT_3D('',#840,#680,#681);
#577=AXIS2_PLACEMENT_3D('',#842,#683,#684);
#578=AXIS2_PLACEMENT_3D('',#845,#685,#686);
#579=AXIS2_PLACEMENT_3D('',#848,#689,#690);
#580=AXIS2_PLACEMENT_3D('',#852,#693,#694);
#581=AXIS2_PLACEMENT_3D('',#854,#695,#696);
#582=AXIS2_PLACEMENT_3D('',#856,#698,#699);
#583=AXIS2_PLACEMENT_3D('',#862,#703,#704);
#584=AXIS2_PLACEMENT_3D('',#864,#705,#706);
#585=AXIS2_PLACEMENT_3D('',#866,#708,#709);
#586=AXIS2_PLACEMENT_3D('',#868,#710,#711);
#587=AXIS2_PLACEMENT_3D('',#870,#713,#714);
#588=AXIS2_PLACEMENT_3D('',#874,#717,#718);
#589=AXIS2_PLACEMENT_3D('',#876,#720,#721);
#590=AXIS2_PLACEMENT_3D('',#880,#724,#725);
#591=AXIS2_PLACEMENT_3D('',#882,#727,#728);
#592=AXIS2_PLACEMENT_3D('',#884,#730,#731);
#593=DIRECTION('axis',(0.,0.,1.));
#594=DIRECTION('refdir',(1.,0.,0.));
#595=DIRECTION('center_axis',(0.342020143325668,0.939692620785909,5.21634191833436E-17));
#596=DIRECTION('ref_axis',(0.,-5.55111512312578E-17,1.));
#597=DIRECTION('',(-1.52515634535812E-16,0.,1.));
#598=DIRECTION('',(-0.939692620785909,0.342020143325668,0.));
#599=DIRECTION('',(0.889126490715989,-0.323615577118184,-0.323615577118185));
#600=DIRECTION('center_axis',(0.342020143325668,0.939692620785909,5.21634191833436E-17));
#601=DIRECTION('ref_axis',(0.,-5.55111512312578E-17,1.));
#602=DIRECTION('',(-1.52515634535812E-16,0.,1.));
#603=DIRECTION('',(0.889126490715989,-0.323615577118184,0.323615577118185));
#604=DIRECTION('',(0.939692620785909,-0.342020143325668,0.));
#605=DIRECTION('center_axis',(0.342020143325669,0.,-0.939692620785908));
#606=DIRECTION('ref_axis',(0.,1.,0.));
#607=DIRECTION('',(0.,1.,0.));
#608=DIRECTION('',(0.889126490715988,0.323615577118185,0.323615577118185));
#609=DIRECTION('',(0.,-1.,0.));
#610=DIRECTION('',(0.939692620785908,0.,0.342020143325669));
#611=DIRECTION('center_axis',(0.342020143325669,-0.939692620785908,0.));
#612=DIRECTION('ref_axis',(0.,0.,-1.));
#613=DIRECTION('',(0.,0.,-1.));
#614=DIRECTION('',(0.889126490715988,0.323615577118185,-0.323615577118185));
#615=DIRECTION('',(0.939692620785909,0.342020143325669,0.));
#616=DIRECTION('',(0.,0.,1.));
#617=DIRECTION('',(-0.939692620785909,-0.342020143325669,0.));
#618=DIRECTION('center_axis',(0.342020143325669,0.,0.939692620785908));
#619=DIRECTION('ref_axis',(0.,-1.,0.));
#620=DIRECTION('',(0.,-1.,0.));
#621=DIRECTION('',(-0.939692620785908,0.,0.342020143325669));
#622=DIRECTION('',(0.,1.,0.));
#623=DIRECTION('center_axis',(0.,1.,0.));
#624=DIRECTION('ref_axis',(-1.,0.,0.));
#625=DIRECTION('',(1.,0.,0.));
#626=DIRECTION('',(0.,0.,1.));
#627=DIRECTION('',(1.,0.,0.));
#628=DIRECTION('center_axis',(0.,-1.,0.));
#629=DIRECTION('ref_axis',(-1.,0.,0.));
#630=DIRECTION('',(-1.,0.,0.));
#631=DIRECTION('center_axis',(0.,-1.,0.));
#632=DIRECTION('ref_axis',(-1.,0.,0.));
#633=DIRECTION('',(1.,0.,0.));
#634=DIRECTION('',(0.,0.,-1.));
#635=DIRECTION('center_axis',(0.,0.,-1.));
#636=DIRECTION('ref_axis',(1.,0.,0.));
#637=DIRECTION('',(1.,0.,0.));
#638=DIRECTION('',(0.,-1.,0.));
#639=DIRECTION('center_axis',(0.,-1.,0.));
#640=DIRECTION('ref_axis',(0.,0.,-1.));
#641=DIRECTION('',(-1.,0.,0.));
#642=DIRECTION('',(0.,0.,1.));
#643=DIRECTION('',(1.,0.,-1.11022302462516E-16));
#644=DIRECTION('',(0.,0.,1.));
#645=DIRECTION('',(-1.,0.,5.55111512312578E-17));
#646=DIRECTION('',(0.,0.,-1.));
#647=DIRECTION('center_axis',(1.11022302462516E-16,0.,1.));
#648=DIRECTION('ref_axis',(-1.,0.,1.11022302462516E-16));
#649=DIRECTION('',(0.,-1.,0.));
#650=DIRECTION('',(1.,0.,-1.11022302462516E-16));
#651=DIRECTION('',(0.,-1.,0.));
#652=DIRECTION('center_axis',(-1.,0.,0.));
#653=DIRECTION('ref_axis',(0.,0.,-1.));
#654=DIRECTION('',(0.,0.,1.));
#655=DIRECTION('',(0.,-1.,0.));
#656=DIRECTION('center_axis',(1.,0.,0.));
#657=DIRECTION('ref_axis',(0.,0.,1.));
#658=DIRECTION('',(0.,-1.,0.));
#659=DIRECTION('',(0.,0.,-1.));
#660=DIRECTION('center_axis',(-5.55111512312578E-17,0.,-1.));
#661=DIRECTION('ref_axis',(1.,0.,-5.55111512312578E-17));
#662=DIRECTION('',(-1.,0.,5.55111512312578E-17));
#663=DIRECTION('center_axis',(0.,0.,1.));
#664=DIRECTION('ref_axis',(-1.,0.,0.));
#665=DIRECTION('',(-1.,0.,0.));
#666=DIRECTION('',(0.,1.,0.));
#667=DIRECTION('center_axis',(1.,0.,0.));
#668=DIRECTION('ref_axis',(0.,0.,1.));
#669=DIRECTION('',(0.,0.,1.));
#670=DIRECTION('',(0.,-1.,0.));
#671=DIRECTION('',(0.,0.,1.));
#672=DIRECTION('',(0.,-1.,0.));
#673=DIRECTION('center_axis',(0.,1.,0.));
#674=DIRECTION('ref_axis',(-1.,0.,0.));
#675=DIRECTION('',(0.,0.,-1.));
#676=DIRECTION('',(-1.,0.,0.));
#677=DIRECTION('center_axis',(0.,-1.,0.));
#678=DIRECTION('ref_axis',(-1.,0.,0.));
#679=DIRECTION('',(1.,0.,0.));
#680=DIRECTION('center_axis',(0.,-1.,0.));
#681=DIRECTION('ref_axis',(-1.,0.,0.));
#682=DIRECTION('',(-1.,0.,0.));
#683=DIRECTION('center_axis',(0.,-1.,0.));
#684=DIRECTION('ref_axis',(-1.,0.,0.));
#685=DIRECTION('center_axis',(0.,1.,0.));
#686=DIRECTION('ref_axis',(-1.,0.,0.));
#687=DIRECTION('',(0.,-1.,0.));
#688=DIRECTION('',(0.,1.,0.));
#689=DIRECTION('center_axis',(0.,0.,1.));
#690=DIRECTION('ref_axis',(-1.,0.,0.));
#691=DIRECTION('',(1.,0.,0.));
#692=DIRECTION('',(0.,-1.,0.));
#693=DIRECTION('center_axis',(0.,-1.,0.));
#694=DIRECTION('ref_axis',(-1.,0.,0.));
#695=DIRECTION('center_axis',(0.,1.,0.));
#696=DIRECTION('ref_axis',(-1.,0.,0.));
#697=DIRECTION('',(0.,-1.,0.));
#698=DIRECTION('center_axis',(0.,0.,-1.));
#699=DIRECTION('ref_axis',(1.,0.,0.));
#700=DIRECTION('',(-1.,0.,0.));
#701=DIRECTION('',(0.,-1.,0.));
#702=DIRECTION('',(0.,-1.,0.));
#703=DIRECTION('center_axis',(0.,-1.,0.));
#704=DIRECTION('ref_axis',(-1.,0.,0.));
#705=DIRECTION('center_axis',(0.,1.,0.));
#706=DIRECTION('ref_axis',(-1.,0.,0.));
#707=DIRECTION('',(0.,1.,0.));
#708=DIRECTION('center_axis',(0.,-1.,0.));
#709=DIRECTION('ref_axis',(-1.,0.,0.));
#710=DIRECTION('center_axis',(0.,1.,0.));
#711=DIRECTION('ref_axis',(-1.,0.,0.));
#712=DIRECTION('',(0.,-1.,0.));
#713=DIRECTION('center_axis',(0.,0.,-1.));
#714=DIRECTION('ref_axis',(1.,0.,0.));
#715=DIRECTION('',(1.,0.,0.));
#716=DIRECTION('',(0.,-1.,0.));
#717=DIRECTION('center_axis',(0.,0.,-1.));
#718=DIRECTION('ref_axis',(1.,0.,0.));
#719=DIRECTION('',(1.,0.,0.));
#720=DIRECTION('center_axis',(0.,0.,1.));
#721=DIRECTION('ref_axis',(-1.,0.,0.));
#722=DIRECTION('',(0.,-1.,0.));
#723=DIRECTION('',(-1.,0.,0.));
#724=DIRECTION('center_axis',(-1.,0.,0.));
#725=DIRECTION('ref_axis',(0.,0.,-1.));
#726=DIRECTION('',(0.,0.,-1.));
#727=DIRECTION('center_axis',(0.,0.,1.));
#728=DIRECTION('ref_axis',(-1.,0.,0.));
#729=DIRECTION('',(-1.,0.,0.));
#730=DIRECTION('center_axis',(0.,-1.,0.));
#731=DIRECTION('ref_axis',(0.,0.,-1.));
#732=CARTESIAN_POINT('',(0.,0.,0.));
#733=CARTESIAN_POINT('Origin',(-85.,12.0000001341105,20.));
#734=CARTESIAN_POINT('',(-79.5050447926253,10.,17.55));
#735=CARTESIAN_POINT('',(-79.5050447926253,10.,17.9999998658896));
#736=CARTESIAN_POINT('',(-79.5050447926253,10.,10.));
#737=CARTESIAN_POINT('',(-78.2686803223361,9.55000013411045,17.55));
#738=CARTESIAN_POINT('',(-9.62171734104896,-15.4354510638519,17.55));
#739=CARTESIAN_POINT('',(-84.2087282483337,11.7120007692882,19.7120006351778));
#740=CARTESIAN_POINT('Origin',(-85.,12.0000001341105,20.));
#741=CARTESIAN_POINT('',(-79.5050447926253,10.,-17.9999998658895));
#742=CARTESIAN_POINT('',(-79.5050447926253,10.,-17.55));
#743=CARTESIAN_POINT('',(-79.5050447926253,10.,10.));
#744=CARTESIAN_POINT('',(-78.2686803223362,9.55000013411047,-17.55));
#745=CARTESIAN_POINT('',(-79.2452963515176,9.90545929903974,-17.9054591649293));
#746=CARTESIAN_POINT('',(-84.6786061736056,11.883022347826,-17.55));
#747=CARTESIAN_POINT('Origin',(-85.,12.0000001341105,-20.));
#748=CARTESIAN_POINT('',(-80.0000011920929,8.31985087155513,-18.1801492625553));
#749=CARTESIAN_POINT('',(-80.0000011920929,10.,-18.1801492625553));
#750=CARTESIAN_POINT('',(-80.0000011920929,11.0000000670552,-18.1801492625553));
#751=CARTESIAN_POINT('',(-78.2686803223362,8.95000013411043,-17.55));
#752=CARTESIAN_POINT('',(-84.2087282483337,6.78799949893267,-19.7120006351778));
#753=CARTESIAN_POINT('',(-78.2686803223362,11.0000000670552,-17.55));
#754=CARTESIAN_POINT('',(-44.257617535289,10.,-5.17098550975591));
#755=CARTESIAN_POINT('Origin',(-85.,6.50000013411045,-20.));
#756=CARTESIAN_POINT('',(-80.0000011920929,8.31985087155513,18.1801492625553));
#757=CARTESIAN_POINT('',(-80.0000011920929,8.31985087155513,7.50000026077033));
#758=CARTESIAN_POINT('',(-78.2686803223361,8.95000013411047,17.55));
#759=CARTESIAN_POINT('',(-79.2452963515176,8.59454096918117,17.9054591649293));
#760=CARTESIAN_POINT('',(-78.4060545617744,8.9,17.55));
#761=CARTESIAN_POINT('',(-9.38067203051884,34.0231846502153,17.55));
#762=CARTESIAN_POINT('',(-78.4060545617743,8.9,-17.55));
#763=CARTESIAN_POINT('',(-78.4060545617744,8.9,-9.99999999999999));
#764=CARTESIAN_POINT('',(-84.4375608630754,6.70471123853738,-17.55));
#765=CARTESIAN_POINT('Origin',(-85.,6.50000013411045,20.));
#766=CARTESIAN_POINT('',(-80.0000011920929,10.,18.1801492625553));
#767=CARTESIAN_POINT('',(-80.0000011920929,8.25000006705523,18.1801492625553));
#768=CARTESIAN_POINT('',(-44.257617535289,10.,5.17098550975595));
#769=CARTESIAN_POINT('',(-78.2686803223361,8.25000006705523,17.55));
#770=CARTESIAN_POINT('Origin',(0.,10.,0.));
#771=CARTESIAN_POINT('',(80.0000011920929,10.,-17.55));
#772=CARTESIAN_POINT('',(-42.5,10.,-17.55));
#773=CARTESIAN_POINT('',(80.0000011920929,10.,-35.0000005215406));
#774=CARTESIAN_POINT('',(80.0000011920929,10.,-35.0000005215406));
#775=CARTESIAN_POINT('',(61.6007826883766,10.,-35.0000005215406));
#776=CARTESIAN_POINT('',(-80.0000011920929,10.,-35.0000005215406));
#777=CARTESIAN_POINT('',(60.0000008940697,10.,-34.7499994039536));
#778=CARTESIAN_POINT('Origin',(60.,10.,-40.));
#779=CARTESIAN_POINT('',(-60.0000008940697,10.,-34.7499994039536));
#780=CARTESIAN_POINT('',(30.0000004470348,10.,-34.7499994039536));
#781=CARTESIAN_POINT('',(-61.6007817207108,10.,-35.0000005215406));
#782=CARTESIAN_POINT('Origin',(-60.0000008940697,10.,-40.0000005960464));
#783=CARTESIAN_POINT('',(-80.0000011920929,10.,-35.0000005215406));
#784=CARTESIAN_POINT('',(-80.0000011920929,10.,-35.0000005215406));
#785=CARTESIAN_POINT('',(-80.0000011920929,10.,35.0000005215406));
#786=CARTESIAN_POINT('Origin',(-85.,10.,-17.55));
#787=CARTESIAN_POINT('',(80.0000011920929,8.9,-17.55));
#788=CARTESIAN_POINT('',(-85.,8.9,-17.55));
#789=CARTESIAN_POINT('',(80.0000011920929,10.,-17.55));
#790=CARTESIAN_POINT('Origin',(1.77635683940025E-14,8.9,4.44089209850063E-15));
#791=CARTESIAN_POINT('',(80.0000011920929,8.9,17.55));
#792=CARTESIAN_POINT('',(85.,8.9,17.55));
#793=CARTESIAN_POINT('',(80.0000011920929,8.9,-17.5000002607703));
#794=CARTESIAN_POINT('',(-20.0000000000002,8.9,12.5000000000001));
#795=CARTESIAN_POINT('',(19.9999999999998,8.9,12.5000000000001));
#796=CARTESIAN_POINT('',(19.9999999999998,8.9,12.5000000000001));
#797=CARTESIAN_POINT('',(-20.0000000000002,8.9,-12.4999999999999));
#798=CARTESIAN_POINT('',(-20.0000000000002,8.9,12.5000000000001));
#799=CARTESIAN_POINT('',(19.9999999999998,8.9,-12.4999999999999));
#800=CARTESIAN_POINT('',(-20.0000000000002,8.9,-12.4999999999999));
#801=CARTESIAN_POINT('',(19.9999999999998,8.9,-12.4999999999999));
#802=CARTESIAN_POINT('Origin',(19.9999999999998,10.,12.5000000000001));
#803=CARTESIAN_POINT('',(19.9999999999998,5.,12.5000000000001));
#804=CARTESIAN_POINT('',(19.9999999999998,10.,12.5000000000001));
#805=CARTESIAN_POINT('',(-20.0000000000002,5.,12.5000000000001));
#806=CARTESIAN_POINT('',(9.99999999999988,5.,12.5000000000001));
#807=CARTESIAN_POINT('',(-20.0000000000002,10.,12.5000000000001));
#808=CARTESIAN_POINT('Origin',(-20.0000000000002,10.,12.5000000000001));
#809=CARTESIAN_POINT('',(-20.0000000000002,5.,-12.4999999999999));
#810=CARTESIAN_POINT('',(-20.0000000000002,5.,6.25000000000004));
#811=CARTESIAN_POINT('',(-20.0000000000002,10.,-12.4999999999999));
#812=CARTESIAN_POINT('Origin',(19.9999999999998,10.,-12.4999999999999));
#813=CARTESIAN_POINT('',(19.9999999999998,5.,-12.4999999999999));
#814=CARTESIAN_POINT('',(19.9999999999998,10.,-12.4999999999999));
#815=CARTESIAN_POINT('',(19.9999999999998,5.,-6.24999999999996));
#816=CARTESIAN_POINT('Origin',(-20.0000000000002,10.,-12.4999999999999));
#817=CARTESIAN_POINT('',(-10.0000000000001,5.,-12.4999999999999));
#818=CARTESIAN_POINT('Origin',(85.,10.,17.55));
#819=CARTESIAN_POINT('',(80.0000011920929,10.,17.55));
#820=CARTESIAN_POINT('',(42.5,10.,17.55));
#821=CARTESIAN_POINT('',(80.0000011920929,10.,17.55));
#822=CARTESIAN_POINT('Origin',(80.0000011920929,10.,-35.0000005215406));
#823=CARTESIAN_POINT('',(80.0000011920929,10.,35.0000005215406));
#824=CARTESIAN_POINT('',(80.0000011920929,10.,-35.0000005215406));
#825=CARTESIAN_POINT('',(80.0000011920929,5.,35.0000005215406));
#826=CARTESIAN_POINT('',(80.0000011920929,10.,35.0000005215406));
#827=CARTESIAN_POINT('',(80.0000011920929,5.,-35.0000005215406));
#828=CARTESIAN_POINT('',(80.0000011920929,5.,-35.0000005215406));
#829=CARTESIAN_POINT('',(80.0000011920929,10.,-35.0000005215406));
#830=CARTESIAN_POINT('Origin',(0.,10.,0.));
#831=CARTESIAN_POINT('',(-80.0000011920929,10.,35.0000005215406));
#832=CARTESIAN_POINT('',(-80.0000011920929,10.,35.0000005215406));
#833=CARTESIAN_POINT('',(-61.6007826883766,10.,35.0000005215406));
#834=CARTESIAN_POINT('',(80.0000011920929,10.,35.0000005215406));
#835=CARTESIAN_POINT('',(-60.,10.,34.75));
#836=CARTESIAN_POINT('Origin',(-60.,10.,40.));
#837=CARTESIAN_POINT('',(60.,10.,34.75));
#838=CARTESIAN_POINT('',(-30.,10.,34.75));
#839=CARTESIAN_POINT('',(61.6007826883766,10.,35.0000005215406));
#840=CARTESIAN_POINT('Origin',(60.,10.,40.));
#841=CARTESIAN_POINT('',(80.0000011920929,10.,35.0000005215406));
#842=CARTESIAN_POINT('Origin',(60.,10.,-40.));
#843=CARTESIAN_POINT('',(60.0000008940697,5.,-34.7499994039536));
#844=CARTESIAN_POINT('',(61.6007826883766,5.,-35.0000005215406));
#845=CARTESIAN_POINT('Origin',(60.,5.,-40.));
#846=CARTESIAN_POINT('',(60.0000008940697,10.,-34.7499994039536));
#847=CARTESIAN_POINT('',(61.6007826883766,10.,-35.0000005215406));
#848=CARTESIAN_POINT('Origin',(60.0000008940697,10.,-34.7499994039536));
#849=CARTESIAN_POINT('',(-60.0000008940697,5.,-34.7499994039536));
#850=CARTESIAN_POINT('',(30.0000004470348,5.,-34.7499994039536));
#851=CARTESIAN_POINT('',(-60.0000008940697,10.,-34.7499994039536));
#852=CARTESIAN_POINT('Origin',(-60.0000008940697,10.,-40.0000005960464));
#853=CARTESIAN_POINT('',(-61.6007817207108,5.,-35.0000005215406));
#854=CARTESIAN_POINT('Origin',(-60.0000008940697,5.,-40.0000005960464));
#855=CARTESIAN_POINT('',(-61.6007817207108,10.,-35.0000005215406));
#856=CARTESIAN_POINT('Origin',(-60.,10.,34.75));
#857=CARTESIAN_POINT('',(60.,5.,34.75));
#858=CARTESIAN_POINT('',(-60.,5.,34.75));
#859=CARTESIAN_POINT('',(-30.,5.,34.75));
#860=CARTESIAN_POINT('',(60.,10.,34.75));
#861=CARTESIAN_POINT('',(-60.,10.,34.75));
#862=CARTESIAN_POINT('Origin',(-60.,10.,40.));
#863=CARTESIAN_POINT('',(-61.6007826883766,5.,35.0000005215406));
#864=CARTESIAN_POINT('Origin',(-60.,5.,40.));
#865=CARTESIAN_POINT('',(-61.6007826883766,10.,35.0000005215406));
#866=CARTESIAN_POINT('Origin',(60.,10.,40.));
#867=CARTESIAN_POINT('',(61.6007826883766,5.,35.0000005215406));
#868=CARTESIAN_POINT('Origin',(60.,5.,40.));
#869=CARTESIAN_POINT('',(61.6007826883766,10.,35.0000005215406));
#870=CARTESIAN_POINT('Origin',(-80.0000011920929,10.,-35.0000005215406));
#871=CARTESIAN_POINT('',(-80.0000011920929,5.,-35.0000005215406));
#872=CARTESIAN_POINT('',(-80.0000011920929,5.,-35.0000005215406));
#873=CARTESIAN_POINT('',(-80.0000011920929,10.,-35.0000005215406));
#874=CARTESIAN_POINT('Origin',(-80.0000011920929,10.,-35.0000005215406));
#875=CARTESIAN_POINT('',(-80.0000011920929,5.,-35.0000005215406));
#876=CARTESIAN_POINT('Origin',(80.0000011920929,10.,35.0000005215406));
#877=CARTESIAN_POINT('',(-80.0000011920929,5.,35.0000005215406));
#878=CARTESIAN_POINT('',(-80.0000011920929,10.,35.0000005215406));
#879=CARTESIAN_POINT('',(80.0000011920929,5.,35.0000005215406));
#880=CARTESIAN_POINT('Origin',(-80.0000011920929,10.,35.0000005215406));
#881=CARTESIAN_POINT('',(-80.0000011920929,5.,35.0000005215406));
#882=CARTESIAN_POINT('Origin',(80.0000011920929,10.,35.0000005215406));
#883=CARTESIAN_POINT('',(80.0000011920929,5.,35.0000005215406));
#884=CARTESIAN_POINT('Origin',(0.,5.,0.));
#885=UNCERTAINTY_MEASURE_WITH_UNIT(LENGTH_MEASURE(0.01),#889,
'DISTANCE_ACCURACY_VALUE',
'Maximum model space distance between geometric entities at asserted c
onnectivities');
#886=UNCERTAINTY_MEASURE_WITH_UNIT(LENGTH_MEASURE(0.01),#889,
'DISTANCE_ACCURACY_VALUE',
'Maximum model space distance between geometric entities at asserted c
onnectivities');
#887=(
GEOMETRIC_REPRESENTATION_CONTEXT(3)
GLOBAL_UNCERTAINTY_ASSIGNED_CONTEXT((#885))
GLOBAL_UNIT_ASSIGNED_CONTEXT((#889,#891,#892))
REPRESENTATION_CONTEXT('','3D')
);
#888=(
GEOMETRIC_REPRESENTATION_CONTEXT(3)
GLOBAL_UNCERTAINTY_ASSIGNED_CONTEXT((#886))
GLOBAL_UNIT_ASSIGNED_CONTEXT((#889,#891,#892))
REPRESENTATION_CONTEXT('','3D')
);
#889=(
LENGTH_UNIT()
NAMED_UNIT(*)
SI_UNIT(.MILLI.,.METRE.)
);
#890=(
LENGTH_UNIT()
NAMED_UNIT(*)
SI_UNIT($,.METRE.)
);
#891=(
NAMED_UNIT(*)
PLANE_ANGLE_UNIT()
SI_UNIT($,.RADIAN.)
);
#892=(
NAMED_UNIT(*)
SI_UNIT($,.STERADIAN.)
SOLID_ANGLE_UNIT()
);
#893=SHAPE_DEFINITION_REPRESENTATION(#894,#895);
#894=PRODUCT_DEFINITION_SHAPE('',$,#897);
#895=SHAPE_REPRESENTATION('',(#557),#887);
#896=PRODUCT_DEFINITION_CONTEXT('part definition',#901,'design');
#897=PRODUCT_DEFINITION('2026-04-08-13-57-30-873',
'Bottom Pressure Plate',#898,#896);
#898=PRODUCT_DEFINITION_FORMATION('',$,#903);
#899=PRODUCT_RELATED_PRODUCT_CATEGORY('Bottom Pressure Plate',
'Bottom Pressure Plate',(#903));
#900=APPLICATION_PROTOCOL_DEFINITION('international standard',
'automotive_design',2009,#901);
#901=APPLICATION_CONTEXT(
'Core Data for Automotive Mechanical Design Process');
#902=PRODUCT_CONTEXT('part definition',#901,'mechanical');
#903=PRODUCT('2026-04-08-13-57-30-873','Bottom Pressure Plate',$,(#902));
#904=PRESENTATION_STYLE_ASSIGNMENT((#905));
#905=SURFACE_STYLE_USAGE(.BOTH.,#906);
#906=SURFACE_SIDE_STYLE('',(#907));
#907=SURFACE_STYLE_FILL_AREA(#908);
#908=FILL_AREA_STYLE('Steel - Satin',(#909));
#909=FILL_AREA_STYLE_COLOUR('Steel - Satin',#910);
#910=COLOUR_RGB('Steel - Satin',0.627450980392157,0.627450980392157,0.627450980392157);
ENDSEC;
END-ISO-10303-21;
