ISO-10303-21;
HEADER;
/* Generated by software containing ST-Developer
 * from STEP Tools, Inc. (www.steptools.com) 
 */

FILE_DESCRIPTION(
/* description */ (''),
/* implementation_level */ '2;1');

FILE_NAME(
/* name */ 'Plate.step',
/* time_stamp */ '2026-03-31T12:30:21+02:00',
/* author */ (''),
/* organization */ (''),
/* preprocessor_version */ 'ST-DEVELOPER v20.1',
/* originating_system */ 'Autodesk Translation Framework v14.24.0.0',
/* authorisation */ '');

FILE_SCHEMA (('AUTOMOTIVE_DESIGN { 1 0 10303 214 3 1 1 }'));
ENDSEC;

DATA;
#10=MECHANICAL_DESIGN_GEOMETRIC_PRESENTATION_REPRESENTATION('',(#13),#1065);
#11=SHAPE_REPRESENTATION_RELATIONSHIP('SRR','None',#1072,#12);
#12=ADVANCED_BREP_SHAPE_REPRESENTATION('',(#14),#1064);
#13=STYLED_ITEM('',(#1081),#14);
#14=MANIFOLD_SOLID_BREP('Body1',#613);
#15=FACE_BOUND('',#96,.T.);
#16=FACE_BOUND('',#98,.T.);
#17=FACE_BOUND('',#99,.T.);
#18=FACE_BOUND('',#100,.T.);
#19=FACE_BOUND('',#101,.T.);
#20=FACE_BOUND('',#102,.T.);
#21=FACE_BOUND('',#105,.T.);
#22=FACE_BOUND('',#108,.T.);
#23=FACE_BOUND('',#111,.T.);
#24=FACE_BOUND('',#114,.T.);
#25=FACE_BOUND('',#121,.T.);
#26=FACE_BOUND('',#124,.T.);
#27=FACE_BOUND('',#127,.T.);
#28=FACE_BOUND('',#130,.T.);
#29=FACE_BOUND('',#144,.T.);
#30=FACE_BOUND('',#146,.T.);
#31=FACE_BOUND('',#147,.T.);
#32=FACE_BOUND('',#148,.T.);
#33=FACE_BOUND('',#149,.T.);
#34=FACE_BOUND('',#150,.T.);
#35=PLANE('',#633);
#36=PLANE('',#634);
#37=PLANE('',#645);
#38=PLANE('',#649);
#39=PLANE('',#653);
#40=PLANE('',#657);
#41=PLANE('',#670);
#42=PLANE('',#674);
#43=PLANE('',#678);
#44=PLANE('',#682);
#45=PLANE('',#683);
#46=PLANE('',#684);
#47=PLANE('',#685);
#48=PLANE('',#686);
#49=PLANE('',#687);
#50=PLANE('',#690);
#51=PLANE('',#693);
#52=PLANE('',#696);
#53=PLANE('',#699);
#54=PLANE('',#700);
#55=FACE_OUTER_BOUND('',#93,.T.);
#56=FACE_OUTER_BOUND('',#94,.T.);
#57=FACE_OUTER_BOUND('',#95,.T.);
#58=FACE_OUTER_BOUND('',#97,.T.);
#59=FACE_OUTER_BOUND('',#103,.T.);
#60=FACE_OUTER_BOUND('',#104,.T.);
#61=FACE_OUTER_BOUND('',#106,.T.);
#62=FACE_OUTER_BOUND('',#107,.T.);
#63=FACE_OUTER_BOUND('',#109,.T.);
#64=FACE_OUTER_BOUND('',#110,.T.);
#65=FACE_OUTER_BOUND('',#112,.T.);
#66=FACE_OUTER_BOUND('',#113,.T.);
#67=FACE_OUTER_BOUND('',#115,.T.);
#68=FACE_OUTER_BOUND('',#116,.T.);
#69=FACE_OUTER_BOUND('',#117,.T.);
#70=FACE_OUTER_BOUND('',#118,.T.);
#71=FACE_OUTER_BOUND('',#119,.T.);
#72=FACE_OUTER_BOUND('',#120,.T.);
#73=FACE_OUTER_BOUND('',#122,.T.);
#74=FACE_OUTER_BOUND('',#123,.T.);
#75=FACE_OUTER_BOUND('',#125,.T.);
#76=FACE_OUTER_BOUND('',#126,.T.);
#77=FACE_OUTER_BOUND('',#128,.T.);
#78=FACE_OUTER_BOUND('',#129,.T.);
#79=FACE_OUTER_BOUND('',#131,.T.);
#80=FACE_OUTER_BOUND('',#132,.T.);
#81=FACE_OUTER_BOUND('',#133,.T.);
#82=FACE_OUTER_BOUND('',#134,.T.);
#83=FACE_OUTER_BOUND('',#135,.T.);
#84=FACE_OUTER_BOUND('',#136,.T.);
#85=FACE_OUTER_BOUND('',#137,.T.);
#86=FACE_OUTER_BOUND('',#138,.T.);
#87=FACE_OUTER_BOUND('',#139,.T.);
#88=FACE_OUTER_BOUND('',#140,.T.);
#89=FACE_OUTER_BOUND('',#141,.T.);
#90=FACE_OUTER_BOUND('',#142,.T.);
#91=FACE_OUTER_BOUND('',#143,.T.);
#92=FACE_OUTER_BOUND('',#145,.T.);
#93=EDGE_LOOP('',(#401,#402,#403,#404));
#94=EDGE_LOOP('',(#405,#406,#407,#408));
#95=EDGE_LOOP('',(#409));
#96=EDGE_LOOP('',(#410));
#97=EDGE_LOOP('',(#411,#412,#413,#414,#415,#416,#417,#418));
#98=EDGE_LOOP('',(#419));
#99=EDGE_LOOP('',(#420));
#100=EDGE_LOOP('',(#421));
#101=EDGE_LOOP('',(#422));
#102=EDGE_LOOP('',(#423));
#103=EDGE_LOOP('',(#424,#425,#426,#427));
#104=EDGE_LOOP('',(#428));
#105=EDGE_LOOP('',(#429));
#106=EDGE_LOOP('',(#430,#431,#432,#433));
#107=EDGE_LOOP('',(#434));
#108=EDGE_LOOP('',(#435));
#109=EDGE_LOOP('',(#436,#437,#438,#439));
#110=EDGE_LOOP('',(#440));
#111=EDGE_LOOP('',(#441));
#112=EDGE_LOOP('',(#442,#443,#444,#445));
#113=EDGE_LOOP('',(#446));
#114=EDGE_LOOP('',(#447));
#115=EDGE_LOOP('',(#448,#449,#450,#451));
#116=EDGE_LOOP('',(#452,#453,#454,#455));
#117=EDGE_LOOP('',(#456,#457,#458,#459));
#118=EDGE_LOOP('',(#460,#461,#462,#463));
#119=EDGE_LOOP('',(#464,#465,#466,#467));
#120=EDGE_LOOP('',(#468));
#121=EDGE_LOOP('',(#469));
#122=EDGE_LOOP('',(#470,#471,#472,#473));
#123=EDGE_LOOP('',(#474));
#124=EDGE_LOOP('',(#475));
#125=EDGE_LOOP('',(#476,#477,#478,#479));
#126=EDGE_LOOP('',(#480));
#127=EDGE_LOOP('',(#481));
#128=EDGE_LOOP('',(#482,#483,#484,#485));
#129=EDGE_LOOP('',(#486));
#130=EDGE_LOOP('',(#487));
#131=EDGE_LOOP('',(#488,#489,#490,#491));
#132=EDGE_LOOP('',(#492,#493,#494,#495));
#133=EDGE_LOOP('',(#496,#497,#498,#499));
#134=EDGE_LOOP('',(#500,#501,#502,#503));
#135=EDGE_LOOP('',(#504,#505,#506,#507));
#136=EDGE_LOOP('',(#508,#509,#510,#511));
#137=EDGE_LOOP('',(#512,#513,#514,#515));
#138=EDGE_LOOP('',(#516,#517,#518,#519));
#139=EDGE_LOOP('',(#520,#521,#522,#523));
#140=EDGE_LOOP('',(#524,#525,#526,#527));
#141=EDGE_LOOP('',(#528,#529,#530,#531));
#142=EDGE_LOOP('',(#532,#533,#534,#535));
#143=EDGE_LOOP('',(#536));
#144=EDGE_LOOP('',(#537,#538,#539,#540));
#145=EDGE_LOOP('',(#541,#542,#543,#544,#545,#546,#547,#548));
#146=EDGE_LOOP('',(#549));
#147=EDGE_LOOP('',(#550));
#148=EDGE_LOOP('',(#551));
#149=EDGE_LOOP('',(#552));
#150=EDGE_LOOP('',(#553,#554,#555,#556));
#151=LINE('',#898,#193);
#152=LINE('',#904,#194);
#153=LINE('',#912,#195);
#154=LINE('',#916,#196);
#155=LINE('',#920,#197);
#156=LINE('',#923,#198);
#157=LINE('',#934,#199);
#158=LINE('',#941,#200);
#159=LINE('',#948,#201);
#160=LINE('',#955,#202);
#161=LINE('',#962,#203);
#162=LINE('',#966,#204);
#163=LINE('',#970,#205);
#164=LINE('',#974,#206);
#165=LINE('',#980,#207);
#166=LINE('',#987,#208);
#167=LINE('',#994,#209);
#168=LINE('',#1001,#210);
#169=LINE('',#1007,#211);
#170=LINE('',#1009,#212);
#171=LINE('',#1011,#213);
#172=LINE('',#1012,#214);
#173=LINE('',#1015,#215);
#174=LINE('',#1017,#216);
#175=LINE('',#1018,#217);
#176=LINE('',#1021,#218);
#177=LINE('',#1023,#219);
#178=LINE('',#1024,#220);
#179=LINE('',#1026,#221);
#180=LINE('',#1027,#222);
#181=LINE('',#1031,#223);
#182=LINE('',#1032,#224);
#183=LINE('',#1033,#225);
#184=LINE('',#1037,#226);
#185=LINE('',#1040,#227);
#186=LINE('',#1041,#228);
#187=LINE('',#1045,#229);
#188=LINE('',#1048,#230);
#189=LINE('',#1049,#231);
#190=LINE('',#1053,#232);
#191=LINE('',#1056,#233);
#192=LINE('',#1057,#234);
#193=VECTOR('',#707,56.5);
#194=VECTOR('',#714,58.5);
#195=VECTOR('',#723,10.);
#196=VECTOR('',#726,10.);
#197=VECTOR('',#729,10.);
#198=VECTOR('',#732,10.);
#199=VECTOR('',#743,3.00000000000001);
#200=VECTOR('',#752,3.);
#201=VECTOR('',#761,3.);
#202=VECTOR('',#770,3.);
#203=VECTOR('',#779,1.75);
#204=VECTOR('',#784,1.75);
#205=VECTOR('',#789,1.75);
#206=VECTOR('',#794,1.75);
#207=VECTOR('',#801,1.95);
#208=VECTOR('',#810,1.95);
#209=VECTOR('',#819,1.95);
#210=VECTOR('',#828,1.94999999999999);
#211=VECTOR('',#835,10.);
#212=VECTOR('',#836,10.);
#213=VECTOR('',#837,10.);
#214=VECTOR('',#838,10.);
#215=VECTOR('',#841,10.);
#216=VECTOR('',#842,10.);
#217=VECTOR('',#843,10.);
#218=VECTOR('',#846,10.);
#219=VECTOR('',#847,10.);
#220=VECTOR('',#848,10.);
#221=VECTOR('',#851,10.);
#222=VECTOR('',#852,10.);
#223=VECTOR('',#855,10.);
#224=VECTOR('',#856,10.);
#225=VECTOR('',#857,10.);
#226=VECTOR('',#862,10.);
#227=VECTOR('',#865,10.);
#228=VECTOR('',#866,10.);
#229=VECTOR('',#871,10.);
#230=VECTOR('',#874,10.);
#231=VECTOR('',#875,10.);
#232=VECTOR('',#880,10.);
#233=VECTOR('',#883,10.);
#234=VECTOR('',#884,10.);
#235=CIRCLE('',#628,56.5);
#236=CIRCLE('',#629,56.5);
#237=CIRCLE('',#631,58.5);
#238=CIRCLE('',#632,58.5);
#239=CIRCLE('',#635,5.);
#240=CIRCLE('',#636,5.00000000000001);
#241=CIRCLE('',#637,4.99999999999999);
#242=CIRCLE('',#638,5.);
#243=CIRCLE('',#639,3.);
#244=CIRCLE('',#640,3.);
#245=CIRCLE('',#641,3.);
#246=CIRCLE('',#642,3.00000000000001);
#247=CIRCLE('',#644,3.00000000000001);
#248=CIRCLE('',#646,1.75);
#249=CIRCLE('',#648,3.);
#250=CIRCLE('',#650,1.75);
#251=CIRCLE('',#652,3.);
#252=CIRCLE('',#654,1.75);
#253=CIRCLE('',#656,3.);
#254=CIRCLE('',#658,1.75);
#255=CIRCLE('',#660,1.75);
#256=CIRCLE('',#662,1.75);
#257=CIRCLE('',#664,1.75);
#258=CIRCLE('',#666,1.75);
#259=CIRCLE('',#668,1.95);
#260=CIRCLE('',#669,1.95);
#261=CIRCLE('',#672,1.95);
#262=CIRCLE('',#673,1.95);
#263=CIRCLE('',#676,1.95);
#264=CIRCLE('',#677,1.95);
#265=CIRCLE('',#680,1.94999999999999);
#266=CIRCLE('',#681,1.94999999999999);
#267=CIRCLE('',#689,5.);
#268=CIRCLE('',#692,4.99999999999999);
#269=CIRCLE('',#695,5.00000000000001);
#270=CIRCLE('',#698,5.);
#271=VERTEX_POINT('',#895);
#272=VERTEX_POINT('',#897);
#273=VERTEX_POINT('',#901);
#274=VERTEX_POINT('',#903);
#275=VERTEX_POINT('',#908);
#276=VERTEX_POINT('',#909);
#277=VERTEX_POINT('',#911);
#278=VERTEX_POINT('',#913);
#279=VERTEX_POINT('',#915);
#280=VERTEX_POINT('',#917);
#281=VERTEX_POINT('',#919);
#282=VERTEX_POINT('',#921);
#283=VERTEX_POINT('',#924);
#284=VERTEX_POINT('',#926);
#285=VERTEX_POINT('',#928);
#286=VERTEX_POINT('',#930);
#287=VERTEX_POINT('',#933);
#288=VERTEX_POINT('',#937);
#289=VERTEX_POINT('',#940);
#290=VERTEX_POINT('',#944);
#291=VERTEX_POINT('',#947);
#292=VERTEX_POINT('',#951);
#293=VERTEX_POINT('',#954);
#294=VERTEX_POINT('',#958);
#295=VERTEX_POINT('',#961);
#296=VERTEX_POINT('',#965);
#297=VERTEX_POINT('',#969);
#298=VERTEX_POINT('',#973);
#299=VERTEX_POINT('',#977);
#300=VERTEX_POINT('',#979);
#301=VERTEX_POINT('',#984);
#302=VERTEX_POINT('',#986);
#303=VERTEX_POINT('',#991);
#304=VERTEX_POINT('',#993);
#305=VERTEX_POINT('',#998);
#306=VERTEX_POINT('',#1000);
#307=VERTEX_POINT('',#1005);
#308=VERTEX_POINT('',#1006);
#309=VERTEX_POINT('',#1008);
#310=VERTEX_POINT('',#1010);
#311=VERTEX_POINT('',#1014);
#312=VERTEX_POINT('',#1016);
#313=VERTEX_POINT('',#1020);
#314=VERTEX_POINT('',#1022);
#315=VERTEX_POINT('',#1029);
#316=VERTEX_POINT('',#1030);
#317=VERTEX_POINT('',#1035);
#318=VERTEX_POINT('',#1039);
#319=VERTEX_POINT('',#1043);
#320=VERTEX_POINT('',#1047);
#321=VERTEX_POINT('',#1051);
#322=VERTEX_POINT('',#1055);
#323=EDGE_CURVE('',#271,#271,#235,.T.);
#324=EDGE_CURVE('',#271,#272,#151,.T.);
#325=EDGE_CURVE('',#272,#272,#236,.T.);
#326=EDGE_CURVE('',#273,#273,#237,.T.);
#327=EDGE_CURVE('',#273,#274,#152,.T.);
#328=EDGE_CURVE('',#274,#274,#238,.T.);
#329=EDGE_CURVE('',#275,#276,#239,.T.);
#330=EDGE_CURVE('',#276,#277,#153,.T.);
#331=EDGE_CURVE('',#277,#278,#240,.T.);
#332=EDGE_CURVE('',#278,#279,#154,.T.);
#333=EDGE_CURVE('',#279,#280,#241,.T.);
#334=EDGE_CURVE('',#280,#281,#155,.T.);
#335=EDGE_CURVE('',#281,#282,#242,.T.);
#336=EDGE_CURVE('',#282,#275,#156,.T.);
#337=EDGE_CURVE('',#283,#283,#243,.T.);
#338=EDGE_CURVE('',#284,#284,#244,.T.);
#339=EDGE_CURVE('',#285,#285,#245,.T.);
#340=EDGE_CURVE('',#286,#286,#246,.T.);
#341=EDGE_CURVE('',#286,#287,#157,.T.);
#342=EDGE_CURVE('',#287,#287,#247,.T.);
#343=EDGE_CURVE('',#288,#288,#248,.T.);
#344=EDGE_CURVE('',#285,#289,#158,.T.);
#345=EDGE_CURVE('',#289,#289,#249,.T.);
#346=EDGE_CURVE('',#290,#290,#250,.T.);
#347=EDGE_CURVE('',#284,#291,#159,.T.);
#348=EDGE_CURVE('',#291,#291,#251,.T.);
#349=EDGE_CURVE('',#292,#292,#252,.T.);
#350=EDGE_CURVE('',#283,#293,#160,.T.);
#351=EDGE_CURVE('',#293,#293,#253,.T.);
#352=EDGE_CURVE('',#294,#294,#254,.T.);
#353=EDGE_CURVE('',#290,#295,#161,.T.);
#354=EDGE_CURVE('',#295,#295,#255,.T.);
#355=EDGE_CURVE('',#288,#296,#162,.T.);
#356=EDGE_CURVE('',#296,#296,#256,.T.);
#357=EDGE_CURVE('',#294,#297,#163,.T.);
#358=EDGE_CURVE('',#297,#297,#257,.T.);
#359=EDGE_CURVE('',#292,#298,#164,.T.);
#360=EDGE_CURVE('',#298,#298,#258,.T.);
#361=EDGE_CURVE('',#299,#299,#259,.T.);
#362=EDGE_CURVE('',#299,#300,#165,.T.);
#363=EDGE_CURVE('',#300,#300,#260,.T.);
#364=EDGE_CURVE('',#301,#301,#261,.T.);
#365=EDGE_CURVE('',#301,#302,#166,.T.);
#366=EDGE_CURVE('',#302,#302,#262,.T.);
#367=EDGE_CURVE('',#303,#303,#263,.T.);
#368=EDGE_CURVE('',#303,#304,#167,.T.);
#369=EDGE_CURVE('',#304,#304,#264,.T.);
#370=EDGE_CURVE('',#305,#305,#265,.T.);
#371=EDGE_CURVE('',#305,#306,#168,.T.);
#372=EDGE_CURVE('',#306,#306,#266,.T.);
#373=EDGE_CURVE('',#307,#308,#169,.T.);
#374=EDGE_CURVE('',#308,#309,#170,.T.);
#375=EDGE_CURVE('',#310,#309,#171,.T.);
#376=EDGE_CURVE('',#307,#310,#172,.T.);
#377=EDGE_CURVE('',#311,#307,#173,.T.);
#378=EDGE_CURVE('',#312,#310,#174,.T.);
#379=EDGE_CURVE('',#311,#312,#175,.T.);
#380=EDGE_CURVE('',#313,#311,#176,.T.);
#381=EDGE_CURVE('',#314,#312,#177,.T.);
#382=EDGE_CURVE('',#313,#314,#178,.T.);
#383=EDGE_CURVE('',#308,#313,#179,.T.);
#384=EDGE_CURVE('',#309,#314,#180,.T.);
#385=EDGE_CURVE('',#315,#316,#181,.T.);
#386=EDGE_CURVE('',#315,#275,#182,.T.);
#387=EDGE_CURVE('',#316,#282,#183,.T.);
#388=EDGE_CURVE('',#317,#316,#267,.T.);
#389=EDGE_CURVE('',#317,#281,#184,.T.);
#390=EDGE_CURVE('',#317,#318,#185,.T.);
#391=EDGE_CURVE('',#318,#280,#186,.T.);
#392=EDGE_CURVE('',#319,#318,#268,.T.);
#393=EDGE_CURVE('',#319,#279,#187,.T.);
#394=EDGE_CURVE('',#319,#320,#188,.T.);
#395=EDGE_CURVE('',#320,#278,#189,.T.);
#396=EDGE_CURVE('',#321,#320,#269,.T.);
#397=EDGE_CURVE('',#321,#277,#190,.T.);
#398=EDGE_CURVE('',#321,#322,#191,.T.);
#399=EDGE_CURVE('',#322,#276,#192,.T.);
#400=EDGE_CURVE('',#315,#322,#270,.T.);
#401=ORIENTED_EDGE('',*,*,#323,.F.);
#402=ORIENTED_EDGE('',*,*,#324,.T.);
#403=ORIENTED_EDGE('',*,*,#325,.T.);
#404=ORIENTED_EDGE('',*,*,#324,.F.);
#405=ORIENTED_EDGE('',*,*,#326,.F.);
#406=ORIENTED_EDGE('',*,*,#327,.T.);
#407=ORIENTED_EDGE('',*,*,#328,.T.);
#408=ORIENTED_EDGE('',*,*,#327,.F.);
#409=ORIENTED_EDGE('',*,*,#328,.F.);
#410=ORIENTED_EDGE('',*,*,#325,.F.);
#411=ORIENTED_EDGE('',*,*,#329,.T.);
#412=ORIENTED_EDGE('',*,*,#330,.T.);
#413=ORIENTED_EDGE('',*,*,#331,.T.);
#414=ORIENTED_EDGE('',*,*,#332,.T.);
#415=ORIENTED_EDGE('',*,*,#333,.T.);
#416=ORIENTED_EDGE('',*,*,#334,.T.);
#417=ORIENTED_EDGE('',*,*,#335,.T.);
#418=ORIENTED_EDGE('',*,*,#336,.T.);
#419=ORIENTED_EDGE('',*,*,#337,.T.);
#420=ORIENTED_EDGE('',*,*,#338,.T.);
#421=ORIENTED_EDGE('',*,*,#339,.T.);
#422=ORIENTED_EDGE('',*,*,#340,.T.);
#423=ORIENTED_EDGE('',*,*,#326,.T.);
#424=ORIENTED_EDGE('',*,*,#340,.F.);
#425=ORIENTED_EDGE('',*,*,#341,.T.);
#426=ORIENTED_EDGE('',*,*,#342,.T.);
#427=ORIENTED_EDGE('',*,*,#341,.F.);
#428=ORIENTED_EDGE('',*,*,#342,.F.);
#429=ORIENTED_EDGE('',*,*,#343,.F.);
#430=ORIENTED_EDGE('',*,*,#339,.F.);
#431=ORIENTED_EDGE('',*,*,#344,.T.);
#432=ORIENTED_EDGE('',*,*,#345,.T.);
#433=ORIENTED_EDGE('',*,*,#344,.F.);
#434=ORIENTED_EDGE('',*,*,#345,.F.);
#435=ORIENTED_EDGE('',*,*,#346,.F.);
#436=ORIENTED_EDGE('',*,*,#338,.F.);
#437=ORIENTED_EDGE('',*,*,#347,.T.);
#438=ORIENTED_EDGE('',*,*,#348,.T.);
#439=ORIENTED_EDGE('',*,*,#347,.F.);
#440=ORIENTED_EDGE('',*,*,#348,.F.);
#441=ORIENTED_EDGE('',*,*,#349,.F.);
#442=ORIENTED_EDGE('',*,*,#337,.F.);
#443=ORIENTED_EDGE('',*,*,#350,.T.);
#444=ORIENTED_EDGE('',*,*,#351,.T.);
#445=ORIENTED_EDGE('',*,*,#350,.F.);
#446=ORIENTED_EDGE('',*,*,#351,.F.);
#447=ORIENTED_EDGE('',*,*,#352,.F.);
#448=ORIENTED_EDGE('',*,*,#346,.T.);
#449=ORIENTED_EDGE('',*,*,#353,.T.);
#450=ORIENTED_EDGE('',*,*,#354,.F.);
#451=ORIENTED_EDGE('',*,*,#353,.F.);
#452=ORIENTED_EDGE('',*,*,#343,.T.);
#453=ORIENTED_EDGE('',*,*,#355,.T.);
#454=ORIENTED_EDGE('',*,*,#356,.F.);
#455=ORIENTED_EDGE('',*,*,#355,.F.);
#456=ORIENTED_EDGE('',*,*,#352,.T.);
#457=ORIENTED_EDGE('',*,*,#357,.T.);
#458=ORIENTED_EDGE('',*,*,#358,.F.);
#459=ORIENTED_EDGE('',*,*,#357,.F.);
#460=ORIENTED_EDGE('',*,*,#349,.T.);
#461=ORIENTED_EDGE('',*,*,#359,.T.);
#462=ORIENTED_EDGE('',*,*,#360,.F.);
#463=ORIENTED_EDGE('',*,*,#359,.F.);
#464=ORIENTED_EDGE('',*,*,#361,.F.);
#465=ORIENTED_EDGE('',*,*,#362,.T.);
#466=ORIENTED_EDGE('',*,*,#363,.T.);
#467=ORIENTED_EDGE('',*,*,#362,.F.);
#468=ORIENTED_EDGE('',*,*,#363,.F.);
#469=ORIENTED_EDGE('',*,*,#360,.T.);
#470=ORIENTED_EDGE('',*,*,#364,.F.);
#471=ORIENTED_EDGE('',*,*,#365,.T.);
#472=ORIENTED_EDGE('',*,*,#366,.T.);
#473=ORIENTED_EDGE('',*,*,#365,.F.);
#474=ORIENTED_EDGE('',*,*,#366,.F.);
#475=ORIENTED_EDGE('',*,*,#356,.T.);
#476=ORIENTED_EDGE('',*,*,#367,.F.);
#477=ORIENTED_EDGE('',*,*,#368,.T.);
#478=ORIENTED_EDGE('',*,*,#369,.T.);
#479=ORIENTED_EDGE('',*,*,#368,.F.);
#480=ORIENTED_EDGE('',*,*,#369,.F.);
#481=ORIENTED_EDGE('',*,*,#358,.T.);
#482=ORIENTED_EDGE('',*,*,#370,.F.);
#483=ORIENTED_EDGE('',*,*,#371,.T.);
#484=ORIENTED_EDGE('',*,*,#372,.T.);
#485=ORIENTED_EDGE('',*,*,#371,.F.);
#486=ORIENTED_EDGE('',*,*,#372,.F.);
#487=ORIENTED_EDGE('',*,*,#354,.T.);
#488=ORIENTED_EDGE('',*,*,#373,.T.);
#489=ORIENTED_EDGE('',*,*,#374,.T.);
#490=ORIENTED_EDGE('',*,*,#375,.F.);
#491=ORIENTED_EDGE('',*,*,#376,.F.);
#492=ORIENTED_EDGE('',*,*,#377,.T.);
#493=ORIENTED_EDGE('',*,*,#376,.T.);
#494=ORIENTED_EDGE('',*,*,#378,.F.);
#495=ORIENTED_EDGE('',*,*,#379,.F.);
#496=ORIENTED_EDGE('',*,*,#380,.T.);
#497=ORIENTED_EDGE('',*,*,#379,.T.);
#498=ORIENTED_EDGE('',*,*,#381,.F.);
#499=ORIENTED_EDGE('',*,*,#382,.F.);
#500=ORIENTED_EDGE('',*,*,#383,.T.);
#501=ORIENTED_EDGE('',*,*,#382,.T.);
#502=ORIENTED_EDGE('',*,*,#384,.F.);
#503=ORIENTED_EDGE('',*,*,#374,.F.);
#504=ORIENTED_EDGE('',*,*,#385,.F.);
#505=ORIENTED_EDGE('',*,*,#386,.T.);
#506=ORIENTED_EDGE('',*,*,#336,.F.);
#507=ORIENTED_EDGE('',*,*,#387,.F.);
#508=ORIENTED_EDGE('',*,*,#388,.T.);
#509=ORIENTED_EDGE('',*,*,#387,.T.);
#510=ORIENTED_EDGE('',*,*,#335,.F.);
#511=ORIENTED_EDGE('',*,*,#389,.F.);
#512=ORIENTED_EDGE('',*,*,#390,.F.);
#513=ORIENTED_EDGE('',*,*,#389,.T.);
#514=ORIENTED_EDGE('',*,*,#334,.F.);
#515=ORIENTED_EDGE('',*,*,#391,.F.);
#516=ORIENTED_EDGE('',*,*,#392,.T.);
#517=ORIENTED_EDGE('',*,*,#391,.T.);
#518=ORIENTED_EDGE('',*,*,#333,.F.);
#519=ORIENTED_EDGE('',*,*,#393,.F.);
#520=ORIENTED_EDGE('',*,*,#394,.F.);
#521=ORIENTED_EDGE('',*,*,#393,.T.);
#522=ORIENTED_EDGE('',*,*,#332,.F.);
#523=ORIENTED_EDGE('',*,*,#395,.F.);
#524=ORIENTED_EDGE('',*,*,#396,.T.);
#525=ORIENTED_EDGE('',*,*,#395,.T.);
#526=ORIENTED_EDGE('',*,*,#331,.F.);
#527=ORIENTED_EDGE('',*,*,#397,.F.);
#528=ORIENTED_EDGE('',*,*,#398,.F.);
#529=ORIENTED_EDGE('',*,*,#397,.T.);
#530=ORIENTED_EDGE('',*,*,#330,.F.);
#531=ORIENTED_EDGE('',*,*,#399,.F.);
#532=ORIENTED_EDGE('',*,*,#400,.T.);
#533=ORIENTED_EDGE('',*,*,#399,.T.);
#534=ORIENTED_EDGE('',*,*,#329,.F.);
#535=ORIENTED_EDGE('',*,*,#386,.F.);
#536=ORIENTED_EDGE('',*,*,#323,.T.);
#537=ORIENTED_EDGE('',*,*,#384,.T.);
#538=ORIENTED_EDGE('',*,*,#381,.T.);
#539=ORIENTED_EDGE('',*,*,#378,.T.);
#540=ORIENTED_EDGE('',*,*,#375,.T.);
#541=ORIENTED_EDGE('',*,*,#400,.F.);
#542=ORIENTED_EDGE('',*,*,#385,.T.);
#543=ORIENTED_EDGE('',*,*,#388,.F.);
#544=ORIENTED_EDGE('',*,*,#390,.T.);
#545=ORIENTED_EDGE('',*,*,#392,.F.);
#546=ORIENTED_EDGE('',*,*,#394,.T.);
#547=ORIENTED_EDGE('',*,*,#396,.F.);
#548=ORIENTED_EDGE('',*,*,#398,.T.);
#549=ORIENTED_EDGE('',*,*,#361,.T.);
#550=ORIENTED_EDGE('',*,*,#364,.T.);
#551=ORIENTED_EDGE('',*,*,#367,.T.);
#552=ORIENTED_EDGE('',*,*,#370,.T.);
#553=ORIENTED_EDGE('',*,*,#383,.F.);
#554=ORIENTED_EDGE('',*,*,#373,.F.);
#555=ORIENTED_EDGE('',*,*,#377,.F.);
#556=ORIENTED_EDGE('',*,*,#380,.F.);
#557=CYLINDRICAL_SURFACE('',#627,56.5);
#558=CYLINDRICAL_SURFACE('',#630,58.5);
#559=CYLINDRICAL_SURFACE('',#643,3.00000000000001);
#560=CYLINDRICAL_SURFACE('',#647,3.);
#561=CYLINDRICAL_SURFACE('',#651,3.);
#562=CYLINDRICAL_SURFACE('',#655,3.);
#563=CYLINDRICAL_SURFACE('',#659,1.75);
#564=CYLINDRICAL_SURFACE('',#661,1.75);
#565=CYLINDRICAL_SURFACE('',#663,1.75);
#566=CYLINDRICAL_SURFACE('',#665,1.75);
#567=CYLINDRICAL_SURFACE('',#667,1.95);
#568=CYLINDRICAL_SURFACE('',#671,1.95);
#569=CYLINDRICAL_SURFACE('',#675,1.95);
#570=CYLINDRICAL_SURFACE('',#679,1.94999999999999);
#571=CYLINDRICAL_SURFACE('',#688,5.);
#572=CYLINDRICAL_SURFACE('',#691,4.99999999999999);
#573=CYLINDRICAL_SURFACE('',#694,5.00000000000001);
#574=CYLINDRICAL_SURFACE('',#697,5.);
#575=ADVANCED_FACE('',(#55),#557,.T.);
#576=ADVANCED_FACE('',(#56),#558,.F.);
#577=ADVANCED_FACE('',(#57,#15),#35,.T.);
#578=ADVANCED_FACE('',(#58,#16,#17,#18,#19,#20),#36,.T.);
#579=ADVANCED_FACE('',(#59),#559,.F.);
#580=ADVANCED_FACE('',(#60,#21),#37,.T.);
#581=ADVANCED_FACE('',(#61),#560,.F.);
#582=ADVANCED_FACE('',(#62,#22),#38,.T.);
#583=ADVANCED_FACE('',(#63),#561,.F.);
#584=ADVANCED_FACE('',(#64,#23),#39,.T.);
#585=ADVANCED_FACE('',(#65),#562,.F.);
#586=ADVANCED_FACE('',(#66,#24),#40,.T.);
#587=ADVANCED_FACE('',(#67),#563,.F.);
#588=ADVANCED_FACE('',(#68),#564,.F.);
#589=ADVANCED_FACE('',(#69),#565,.F.);
#590=ADVANCED_FACE('',(#70),#566,.F.);
#591=ADVANCED_FACE('',(#71),#567,.F.);
#592=ADVANCED_FACE('',(#72,#25),#41,.T.);
#593=ADVANCED_FACE('',(#73),#568,.F.);
#594=ADVANCED_FACE('',(#74,#26),#42,.T.);
#595=ADVANCED_FACE('',(#75),#569,.F.);
#596=ADVANCED_FACE('',(#76,#27),#43,.T.);
#597=ADVANCED_FACE('',(#77),#570,.F.);
#598=ADVANCED_FACE('',(#78,#28),#44,.T.);
#599=ADVANCED_FACE('',(#79),#45,.T.);
#600=ADVANCED_FACE('',(#80),#46,.T.);
#601=ADVANCED_FACE('',(#81),#47,.T.);
#602=ADVANCED_FACE('',(#82),#48,.T.);
#603=ADVANCED_FACE('',(#83),#49,.T.);
#604=ADVANCED_FACE('',(#84),#571,.T.);
#605=ADVANCED_FACE('',(#85),#50,.T.);
#606=ADVANCED_FACE('',(#86),#572,.T.);
#607=ADVANCED_FACE('',(#87),#51,.T.);
#608=ADVANCED_FACE('',(#88),#573,.T.);
#609=ADVANCED_FACE('',(#89),#52,.T.);
#610=ADVANCED_FACE('',(#90),#574,.T.);
#611=ADVANCED_FACE('',(#91,#29),#53,.T.);
#612=ADVANCED_FACE('',(#92,#30,#31,#32,#33,#34),#54,.F.);
#613=CLOSED_SHELL('',(#575,#576,#577,#578,#579,#580,#581,#582,#583,#584,
#585,#586,#587,#588,#589,#590,#591,#592,#593,#594,#595,#596,#597,#598,#599,
#600,#601,#602,#603,#604,#605,#606,#607,#608,#609,#610,#611,#612));
#614=DERIVED_UNIT_ELEMENT(#616,1.);
#615=DERIVED_UNIT_ELEMENT(#1067,-3.);
#616=(
MASS_UNIT()
NAMED_UNIT(*)
SI_UNIT(.KILO.,.GRAM.)
);
#617=DERIVED_UNIT((#614,#615));
#618=MEASURE_REPRESENTATION_ITEM('density measure',
POSITIVE_RATIO_MEASURE(7850.),#617);
#619=PROPERTY_DEFINITION_REPRESENTATION(#624,#621);
#620=PROPERTY_DEFINITION_REPRESENTATION(#625,#622);
#621=REPRESENTATION('material name',(#623),#1064);
#622=REPRESENTATION('density',(#618),#1064);
#623=DESCRIPTIVE_REPRESENTATION_ITEM('Steel','Steel');
#624=PROPERTY_DEFINITION('material property','material name',#1074);
#625=PROPERTY_DEFINITION('material property','density of part',#1074);
#626=AXIS2_PLACEMENT_3D('',#893,#701,#702);
#627=AXIS2_PLACEMENT_3D('',#894,#703,#704);
#628=AXIS2_PLACEMENT_3D('',#896,#705,#706);
#629=AXIS2_PLACEMENT_3D('',#899,#708,#709);
#630=AXIS2_PLACEMENT_3D('',#900,#710,#711);
#631=AXIS2_PLACEMENT_3D('',#902,#712,#713);
#632=AXIS2_PLACEMENT_3D('',#905,#715,#716);
#633=AXIS2_PLACEMENT_3D('',#906,#717,#718);
#634=AXIS2_PLACEMENT_3D('',#907,#719,#720);
#635=AXIS2_PLACEMENT_3D('',#910,#721,#722);
#636=AXIS2_PLACEMENT_3D('',#914,#724,#725);
#637=AXIS2_PLACEMENT_3D('',#918,#727,#728);
#638=AXIS2_PLACEMENT_3D('',#922,#730,#731);
#639=AXIS2_PLACEMENT_3D('',#925,#733,#734);
#640=AXIS2_PLACEMENT_3D('',#927,#735,#736);
#641=AXIS2_PLACEMENT_3D('',#929,#737,#738);
#642=AXIS2_PLACEMENT_3D('',#931,#739,#740);
#643=AXIS2_PLACEMENT_3D('',#932,#741,#742);
#644=AXIS2_PLACEMENT_3D('',#935,#744,#745);
#645=AXIS2_PLACEMENT_3D('',#936,#746,#747);
#646=AXIS2_PLACEMENT_3D('',#938,#748,#749);
#647=AXIS2_PLACEMENT_3D('',#939,#750,#751);
#648=AXIS2_PLACEMENT_3D('',#942,#753,#754);
#649=AXIS2_PLACEMENT_3D('',#943,#755,#756);
#650=AXIS2_PLACEMENT_3D('',#945,#757,#758);
#651=AXIS2_PLACEMENT_3D('',#946,#759,#760);
#652=AXIS2_PLACEMENT_3D('',#949,#762,#763);
#653=AXIS2_PLACEMENT_3D('',#950,#764,#765);
#654=AXIS2_PLACEMENT_3D('',#952,#766,#767);
#655=AXIS2_PLACEMENT_3D('',#953,#768,#769);
#656=AXIS2_PLACEMENT_3D('',#956,#771,#772);
#657=AXIS2_PLACEMENT_3D('',#957,#773,#774);
#658=AXIS2_PLACEMENT_3D('',#959,#775,#776);
#659=AXIS2_PLACEMENT_3D('',#960,#777,#778);
#660=AXIS2_PLACEMENT_3D('',#963,#780,#781);
#661=AXIS2_PLACEMENT_3D('',#964,#782,#783);
#662=AXIS2_PLACEMENT_3D('',#967,#785,#786);
#663=AXIS2_PLACEMENT_3D('',#968,#787,#788);
#664=AXIS2_PLACEMENT_3D('',#971,#790,#791);
#665=AXIS2_PLACEMENT_3D('',#972,#792,#793);
#666=AXIS2_PLACEMENT_3D('',#975,#795,#796);
#667=AXIS2_PLACEMENT_3D('',#976,#797,#798);
#668=AXIS2_PLACEMENT_3D('',#978,#799,#800);
#669=AXIS2_PLACEMENT_3D('',#981,#802,#803);
#670=AXIS2_PLACEMENT_3D('',#982,#804,#805);
#671=AXIS2_PLACEMENT_3D('',#983,#806,#807);
#672=AXIS2_PLACEMENT_3D('',#985,#808,#809);
#673=AXIS2_PLACEMENT_3D('',#988,#811,#812);
#674=AXIS2_PLACEMENT_3D('',#989,#813,#814);
#675=AXIS2_PLACEMENT_3D('',#990,#815,#816);
#676=AXIS2_PLACEMENT_3D('',#992,#817,#818);
#677=AXIS2_PLACEMENT_3D('',#995,#820,#821);
#678=AXIS2_PLACEMENT_3D('',#996,#822,#823);
#679=AXIS2_PLACEMENT_3D('',#997,#824,#825);
#680=AXIS2_PLACEMENT_3D('',#999,#826,#827);
#681=AXIS2_PLACEMENT_3D('',#1002,#829,#830);
#682=AXIS2_PLACEMENT_3D('',#1003,#831,#832);
#683=AXIS2_PLACEMENT_3D('',#1004,#833,#834);
#684=AXIS2_PLACEMENT_3D('',#1013,#839,#840);
#685=AXIS2_PLACEMENT_3D('',#1019,#844,#845);
#686=AXIS2_PLACEMENT_3D('',#1025,#849,#850);
#687=AXIS2_PLACEMENT_3D('',#1028,#853,#854);
#688=AXIS2_PLACEMENT_3D('',#1034,#858,#859);
#689=AXIS2_PLACEMENT_3D('',#1036,#860,#861);
#690=AXIS2_PLACEMENT_3D('',#1038,#863,#864);
#691=AXIS2_PLACEMENT_3D('',#1042,#867,#868);
#692=AXIS2_PLACEMENT_3D('',#1044,#869,#870);
#693=AXIS2_PLACEMENT_3D('',#1046,#872,#873);
#694=AXIS2_PLACEMENT_3D('',#1050,#876,#877);
#695=AXIS2_PLACEMENT_3D('',#1052,#878,#879);
#696=AXIS2_PLACEMENT_3D('',#1054,#881,#882);
#697=AXIS2_PLACEMENT_3D('',#1058,#885,#886);
#698=AXIS2_PLACEMENT_3D('',#1059,#887,#888);
#699=AXIS2_PLACEMENT_3D('',#1060,#889,#890);
#700=AXIS2_PLACEMENT_3D('',#1061,#891,#892);
#701=DIRECTION('axis',(0.,0.,1.));
#702=DIRECTION('refdir',(1.,0.,0.));
#703=DIRECTION('center_axis',(0.,-1.,0.));
#704=DIRECTION('ref_axis',(-1.,0.,0.));
#705=DIRECTION('center_axis',(0.,1.,0.));
#706=DIRECTION('ref_axis',(-1.,0.,0.));
#707=DIRECTION('',(0.,-1.,0.));
#708=DIRECTION('center_axis',(0.,1.,0.));
#709=DIRECTION('ref_axis',(-1.,0.,0.));
#710=DIRECTION('center_axis',(0.,-1.,0.));
#711=DIRECTION('ref_axis',(-1.,0.,0.));
#712=DIRECTION('center_axis',(0.,-1.,0.));
#713=DIRECTION('ref_axis',(-1.,0.,0.));
#714=DIRECTION('',(0.,-1.,0.));
#715=DIRECTION('center_axis',(0.,-1.,0.));
#716=DIRECTION('ref_axis',(-1.,0.,0.));
#717=DIRECTION('center_axis',(0.,1.,0.));
#718=DIRECTION('ref_axis',(-1.,0.,0.));
#719=DIRECTION('center_axis',(0.,1.,0.));
#720=DIRECTION('ref_axis',(1.,0.,0.));
#721=DIRECTION('center_axis',(0.,1.,0.));
#722=DIRECTION('ref_axis',(0.,0.,-1.));
#723=DIRECTION('',(1.61486985400023E-16,0.,1.));
#724=DIRECTION('center_axis',(0.,1.,0.));
#725=DIRECTION('ref_axis',(-1.,0.,0.));
#726=DIRECTION('',(1.,0.,-1.11022302462516E-16));
#727=DIRECTION('center_axis',(0.,1.,0.));
#728=DIRECTION('ref_axis',(0.,0.,1.));
#729=DIRECTION('',(0.,0.,-1.));
#730=DIRECTION('center_axis',(0.,1.,0.));
#731=DIRECTION('ref_axis',(1.,0.,-1.77635683940025E-15));
#732=DIRECTION('',(-1.,0.,0.));
#733=DIRECTION('center_axis',(0.,-1.,0.));
#734=DIRECTION('ref_axis',(-1.,0.,0.));
#735=DIRECTION('center_axis',(0.,-1.,0.));
#736=DIRECTION('ref_axis',(-1.,0.,0.));
#737=DIRECTION('center_axis',(0.,-1.,0.));
#738=DIRECTION('ref_axis',(-1.,0.,0.));
#739=DIRECTION('center_axis',(0.,-1.,0.));
#740=DIRECTION('ref_axis',(-1.,0.,0.));
#741=DIRECTION('center_axis',(0.,-1.,0.));
#742=DIRECTION('ref_axis',(-1.,0.,0.));
#743=DIRECTION('',(0.,-1.,0.));
#744=DIRECTION('center_axis',(0.,-1.,0.));
#745=DIRECTION('ref_axis',(-1.,0.,0.));
#746=DIRECTION('center_axis',(0.,1.,0.));
#747=DIRECTION('ref_axis',(-1.,0.,0.));
#748=DIRECTION('center_axis',(0.,1.,0.));
#749=DIRECTION('ref_axis',(-1.,0.,0.));
#750=DIRECTION('center_axis',(0.,-1.,0.));
#751=DIRECTION('ref_axis',(-1.,0.,0.));
#752=DIRECTION('',(0.,-1.,0.));
#753=DIRECTION('center_axis',(0.,-1.,0.));
#754=DIRECTION('ref_axis',(-1.,0.,0.));
#755=DIRECTION('center_axis',(0.,1.,0.));
#756=DIRECTION('ref_axis',(-1.,0.,0.));
#757=DIRECTION('center_axis',(0.,1.,0.));
#758=DIRECTION('ref_axis',(-1.,0.,0.));
#759=DIRECTION('center_axis',(0.,-1.,0.));
#760=DIRECTION('ref_axis',(-1.,0.,0.));
#761=DIRECTION('',(0.,-1.,0.));
#762=DIRECTION('center_axis',(0.,-1.,0.));
#763=DIRECTION('ref_axis',(-1.,0.,0.));
#764=DIRECTION('center_axis',(0.,1.,0.));
#765=DIRECTION('ref_axis',(-1.,0.,0.));
#766=DIRECTION('center_axis',(0.,1.,0.));
#767=DIRECTION('ref_axis',(-1.,0.,0.));
#768=DIRECTION('center_axis',(0.,-1.,0.));
#769=DIRECTION('ref_axis',(-1.,0.,0.));
#770=DIRECTION('',(0.,-1.,0.));
#771=DIRECTION('center_axis',(0.,-1.,0.));
#772=DIRECTION('ref_axis',(-1.,0.,0.));
#773=DIRECTION('center_axis',(0.,1.,0.));
#774=DIRECTION('ref_axis',(-1.,0.,0.));
#775=DIRECTION('center_axis',(0.,1.,0.));
#776=DIRECTION('ref_axis',(-1.,0.,0.));
#777=DIRECTION('center_axis',(0.,-1.,0.));
#778=DIRECTION('ref_axis',(-1.,0.,0.));
#779=DIRECTION('',(0.,-1.,0.));
#780=DIRECTION('center_axis',(0.,1.,0.));
#781=DIRECTION('ref_axis',(-1.,0.,0.));
#782=DIRECTION('center_axis',(0.,-1.,0.));
#783=DIRECTION('ref_axis',(-1.,0.,0.));
#784=DIRECTION('',(0.,-1.,0.));
#785=DIRECTION('center_axis',(0.,1.,0.));
#786=DIRECTION('ref_axis',(-1.,0.,0.));
#787=DIRECTION('center_axis',(0.,-1.,0.));
#788=DIRECTION('ref_axis',(-1.,0.,0.));
#789=DIRECTION('',(0.,-1.,0.));
#790=DIRECTION('center_axis',(0.,1.,0.));
#791=DIRECTION('ref_axis',(-1.,0.,0.));
#792=DIRECTION('center_axis',(0.,-1.,0.));
#793=DIRECTION('ref_axis',(-1.,0.,0.));
#794=DIRECTION('',(0.,-1.,0.));
#795=DIRECTION('center_axis',(0.,1.,0.));
#796=DIRECTION('ref_axis',(-1.,0.,0.));
#797=DIRECTION('center_axis',(0.,1.,0.));
#798=DIRECTION('ref_axis',(1.,0.,0.));
#799=DIRECTION('center_axis',(0.,1.,0.));
#800=DIRECTION('ref_axis',(1.,0.,0.));
#801=DIRECTION('',(0.,1.,0.));
#802=DIRECTION('center_axis',(0.,1.,0.));
#803=DIRECTION('ref_axis',(1.,0.,0.));
#804=DIRECTION('center_axis',(0.,-1.,0.));
#805=DIRECTION('ref_axis',(1.,0.,0.));
#806=DIRECTION('center_axis',(0.,1.,0.));
#807=DIRECTION('ref_axis',(1.,0.,0.));
#808=DIRECTION('center_axis',(0.,1.,0.));
#809=DIRECTION('ref_axis',(1.,0.,0.));
#810=DIRECTION('',(0.,1.,0.));
#811=DIRECTION('center_axis',(0.,1.,0.));
#812=DIRECTION('ref_axis',(1.,0.,0.));
#813=DIRECTION('center_axis',(0.,-1.,0.));
#814=DIRECTION('ref_axis',(1.,0.,0.));
#815=DIRECTION('center_axis',(0.,1.,0.));
#816=DIRECTION('ref_axis',(1.,0.,0.));
#817=DIRECTION('center_axis',(0.,1.,0.));
#818=DIRECTION('ref_axis',(1.,0.,0.));
#819=DIRECTION('',(0.,1.,0.));
#820=DIRECTION('center_axis',(0.,1.,0.));
#821=DIRECTION('ref_axis',(1.,0.,0.));
#822=DIRECTION('center_axis',(0.,-1.,0.));
#823=DIRECTION('ref_axis',(1.,0.,0.));
#824=DIRECTION('center_axis',(0.,1.,0.));
#825=DIRECTION('ref_axis',(1.,0.,0.));
#826=DIRECTION('center_axis',(0.,1.,0.));
#827=DIRECTION('ref_axis',(1.,0.,0.));
#828=DIRECTION('',(0.,1.,0.));
#829=DIRECTION('center_axis',(0.,1.,0.));
#830=DIRECTION('ref_axis',(1.,0.,0.));
#831=DIRECTION('center_axis',(0.,-1.,0.));
#832=DIRECTION('ref_axis',(1.,0.,0.));
#833=DIRECTION('center_axis',(-1.,0.,0.));
#834=DIRECTION('ref_axis',(0.,0.,1.));
#835=DIRECTION('',(0.,0.,1.));
#836=DIRECTION('',(0.,1.,0.));
#837=DIRECTION('',(0.,0.,1.));
#838=DIRECTION('',(0.,1.,0.));
#839=DIRECTION('center_axis',(0.,0.,1.));
#840=DIRECTION('ref_axis',(1.,0.,0.));
#841=DIRECTION('',(1.,0.,0.));
#842=DIRECTION('',(1.,0.,0.));
#843=DIRECTION('',(0.,1.,0.));
#844=DIRECTION('center_axis',(1.,0.,0.));
#845=DIRECTION('ref_axis',(0.,0.,-1.));
#846=DIRECTION('',(0.,0.,-1.));
#847=DIRECTION('',(0.,0.,-1.));
#848=DIRECTION('',(0.,1.,0.));
#849=DIRECTION('center_axis',(0.,0.,-1.));
#850=DIRECTION('ref_axis',(-1.,0.,0.));
#851=DIRECTION('',(-1.,0.,0.));
#852=DIRECTION('',(-1.,0.,0.));
#853=DIRECTION('center_axis',(0.,0.,-1.));
#854=DIRECTION('ref_axis',(-1.,0.,0.));
#855=DIRECTION('',(1.,0.,0.));
#856=DIRECTION('',(0.,1.,0.));
#857=DIRECTION('',(0.,1.,0.));
#858=DIRECTION('center_axis',(0.,1.,0.));
#859=DIRECTION('ref_axis',(1.,0.,-1.77635683940025E-15));
#860=DIRECTION('center_axis',(0.,1.,0.));
#861=DIRECTION('ref_axis',(1.,0.,-1.77635683940025E-15));
#862=DIRECTION('',(0.,1.,0.));
#863=DIRECTION('center_axis',(1.,0.,0.));
#864=DIRECTION('ref_axis',(0.,0.,-1.));
#865=DIRECTION('',(0.,0.,1.));
#866=DIRECTION('',(0.,1.,0.));
#867=DIRECTION('center_axis',(0.,1.,0.));
#868=DIRECTION('ref_axis',(0.,0.,1.));
#869=DIRECTION('center_axis',(0.,1.,0.));
#870=DIRECTION('ref_axis',(0.,0.,1.));
#871=DIRECTION('',(0.,1.,0.));
#872=DIRECTION('center_axis',(1.11022302462516E-16,0.,1.));
#873=DIRECTION('ref_axis',(1.,0.,-1.11022302462516E-16));
#874=DIRECTION('',(-1.,0.,1.11022302462516E-16));
#875=DIRECTION('',(0.,1.,0.));
#876=DIRECTION('center_axis',(0.,1.,0.));
#877=DIRECTION('ref_axis',(-1.,0.,0.));
#878=DIRECTION('center_axis',(0.,1.,0.));
#879=DIRECTION('ref_axis',(-1.,0.,0.));
#880=DIRECTION('',(0.,1.,0.));
#881=DIRECTION('center_axis',(-1.,0.,1.61486985400023E-16));
#882=DIRECTION('ref_axis',(1.61486985400023E-16,0.,1.));
#883=DIRECTION('',(-1.61486985400023E-16,0.,-1.));
#884=DIRECTION('',(0.,1.,0.));
#885=DIRECTION('center_axis',(0.,1.,0.));
#886=DIRECTION('ref_axis',(0.,0.,-1.));
#887=DIRECTION('center_axis',(0.,1.,0.));
#888=DIRECTION('ref_axis',(0.,0.,-1.));
#889=DIRECTION('center_axis',(0.,1.,0.));
#890=DIRECTION('ref_axis',(1.,0.,0.));
#891=DIRECTION('center_axis',(0.,1.,0.));
#892=DIRECTION('ref_axis',(1.,0.,0.));
#893=CARTESIAN_POINT('',(0.,0.,0.));
#894=CARTESIAN_POINT('Origin',(0.,10.,0.));
#895=CARTESIAN_POINT('',(56.5,10.,-6.91925441518255E-15));
#896=CARTESIAN_POINT('Origin',(0.,10.,0.));
#897=CARTESIAN_POINT('',(56.5,7.,-6.91925441518255E-15));
#898=CARTESIAN_POINT('',(56.5,10.,6.91925441518255E-15));
#899=CARTESIAN_POINT('Origin',(0.,7.,0.));
#900=CARTESIAN_POINT('Origin',(0.,10.,0.));
#901=CARTESIAN_POINT('',(58.5,10.,-7.16418377501202E-15));
#902=CARTESIAN_POINT('Origin',(0.,10.,0.));
#903=CARTESIAN_POINT('',(58.5,7.,-7.16418377501202E-15));
#904=CARTESIAN_POINT('',(58.5,10.,7.16418377501202E-15));
#905=CARTESIAN_POINT('Origin',(0.,7.,0.));
#906=CARTESIAN_POINT('Origin',(0.,7.,0.));
#907=CARTESIAN_POINT('Origin',(-1.77635683940025E-14,10.,0.));
#908=CARTESIAN_POINT('',(-80.,10.,-60.));
#909=CARTESIAN_POINT('',(-85.,10.,-55.));
#910=CARTESIAN_POINT('Origin',(-80.,10.,-55.));
#911=CARTESIAN_POINT('',(-85.,10.,55.));
#912=CARTESIAN_POINT('',(-85.,10.,55.));
#913=CARTESIAN_POINT('',(-80.,10.,60.));
#914=CARTESIAN_POINT('Origin',(-80.,10.,55.));
#915=CARTESIAN_POINT('',(80.,10.,60.));
#916=CARTESIAN_POINT('',(80.,10.,60.));
#917=CARTESIAN_POINT('',(85.,10.,55.));
#918=CARTESIAN_POINT('Origin',(80.,10.,55.));
#919=CARTESIAN_POINT('',(85.,10.,-55.));
#920=CARTESIAN_POINT('',(85.,10.,-55.));
#921=CARTESIAN_POINT('',(80.,10.,-60.));
#922=CARTESIAN_POINT('Origin',(80.,10.,-55.));
#923=CARTESIAN_POINT('',(-80.,10.,-60.));
#924=CARTESIAN_POINT('',(73.0000010430813,10.,40.0000005960464));
#925=CARTESIAN_POINT('Origin',(70.0000010430813,10.,40.0000005960464));
#926=CARTESIAN_POINT('',(-67.,10.,40.));
#927=CARTESIAN_POINT('Origin',(-70.,10.,40.));
#928=CARTESIAN_POINT('',(73.0000010430813,10.,-40.0000005960464));
#929=CARTESIAN_POINT('Origin',(70.0000010430813,10.,-40.0000005960464));
#930=CARTESIAN_POINT('',(-67.0000010430813,10.,-40.0000005960464));
#931=CARTESIAN_POINT('Origin',(-70.0000010430813,10.,-40.0000005960464));
#932=CARTESIAN_POINT('Origin',(-70.0000010430813,10.,-40.0000005960464));
#933=CARTESIAN_POINT('',(-67.0000010430813,7.,-40.0000005960464));
#934=CARTESIAN_POINT('',(-67.0000010430813,10.,-40.0000005960464));
#935=CARTESIAN_POINT('Origin',(-70.0000010430813,7.,-40.0000005960464));
#936=CARTESIAN_POINT('Origin',(-70.0000010430813,7.,-40.0000005960464));
#937=CARTESIAN_POINT('',(-68.2500010430813,7.,-40.0000005960464));
#938=CARTESIAN_POINT('Origin',(-70.0000010430813,7.,-40.0000005960464));
#939=CARTESIAN_POINT('Origin',(70.0000010430813,10.,-40.0000005960464));
#940=CARTESIAN_POINT('',(73.0000010430813,7.,-40.0000005960464));
#941=CARTESIAN_POINT('',(73.0000010430813,10.,-40.0000005960464));
#942=CARTESIAN_POINT('Origin',(70.0000010430813,7.,-40.0000005960464));
#943=CARTESIAN_POINT('Origin',(70.0000010430813,7.,-40.0000005960464));
#944=CARTESIAN_POINT('',(71.7500010430813,7.,-40.0000005960464));
#945=CARTESIAN_POINT('Origin',(70.0000010430813,7.,-40.0000005960464));
#946=CARTESIAN_POINT('Origin',(-70.,10.,40.));
#947=CARTESIAN_POINT('',(-67.,7.,40.));
#948=CARTESIAN_POINT('',(-67.,10.,40.));
#949=CARTESIAN_POINT('Origin',(-70.,7.,40.));
#950=CARTESIAN_POINT('Origin',(-70.,7.,40.));
#951=CARTESIAN_POINT('',(-68.25,7.,40.));
#952=CARTESIAN_POINT('Origin',(-70.,7.,40.));
#953=CARTESIAN_POINT('Origin',(70.0000010430813,10.,40.0000005960464));
#954=CARTESIAN_POINT('',(73.0000010430813,7.,40.0000005960464));
#955=CARTESIAN_POINT('',(73.0000010430813,10.,40.0000005960464));
#956=CARTESIAN_POINT('Origin',(70.0000010430813,7.,40.0000005960464));
#957=CARTESIAN_POINT('Origin',(70.0000010430813,7.,40.0000005960464));
#958=CARTESIAN_POINT('',(71.7500010430813,7.,40.0000005960464));
#959=CARTESIAN_POINT('Origin',(70.0000010430813,7.,40.0000005960464));
#960=CARTESIAN_POINT('Origin',(70.0000010430813,10.,-40.0000005960464));
#961=CARTESIAN_POINT('',(71.7500010430813,6.7,-40.0000005960464));
#962=CARTESIAN_POINT('',(71.7500010430813,10.,-40.0000005960464));
#963=CARTESIAN_POINT('Origin',(70.0000010430813,6.7,-40.0000005960464));
#964=CARTESIAN_POINT('Origin',(-70.0000010430813,10.,-40.0000005960464));
#965=CARTESIAN_POINT('',(-68.2500010430813,6.7,-40.0000005960464));
#966=CARTESIAN_POINT('',(-68.2500010430813,10.,-40.0000005960464));
#967=CARTESIAN_POINT('Origin',(-70.0000010430813,6.7,-40.0000005960464));
#968=CARTESIAN_POINT('Origin',(70.0000010430813,10.,40.0000005960464));
#969=CARTESIAN_POINT('',(71.7500010430813,6.7,40.0000005960464));
#970=CARTESIAN_POINT('',(71.7500010430813,10.,40.0000005960464));
#971=CARTESIAN_POINT('Origin',(70.0000010430813,6.7,40.0000005960464));
#972=CARTESIAN_POINT('Origin',(-70.,10.,40.));
#973=CARTESIAN_POINT('',(-68.25,6.7,40.));
#974=CARTESIAN_POINT('',(-68.25,10.,40.));
#975=CARTESIAN_POINT('Origin',(-70.,6.7,40.));
#976=CARTESIAN_POINT('Origin',(-70.,0.,40.));
#977=CARTESIAN_POINT('',(-71.95,0.,40.));
#978=CARTESIAN_POINT('Origin',(-70.,0.,40.));
#979=CARTESIAN_POINT('',(-71.95,6.7,40.));
#980=CARTESIAN_POINT('',(-71.95,0.,40.));
#981=CARTESIAN_POINT('Origin',(-70.,6.7,40.));
#982=CARTESIAN_POINT('Origin',(-70.,6.7,40.));
#983=CARTESIAN_POINT('Origin',(-70.,0.,-40.));
#984=CARTESIAN_POINT('',(-71.95,0.,-40.));
#985=CARTESIAN_POINT('Origin',(-70.,0.,-40.));
#986=CARTESIAN_POINT('',(-71.95,6.7,-40.));
#987=CARTESIAN_POINT('',(-71.95,0.,-40.));
#988=CARTESIAN_POINT('Origin',(-70.,6.7,-40.));
#989=CARTESIAN_POINT('Origin',(-70.,6.7,-40.));
#990=CARTESIAN_POINT('Origin',(70.,0.,40.));
#991=CARTESIAN_POINT('',(68.05,0.,40.));
#992=CARTESIAN_POINT('Origin',(70.,0.,40.));
#993=CARTESIAN_POINT('',(68.05,6.7,40.));
#994=CARTESIAN_POINT('',(68.05,0.,40.));
#995=CARTESIAN_POINT('Origin',(70.,6.7,40.));
#996=CARTESIAN_POINT('Origin',(70.,6.7,40.));
#997=CARTESIAN_POINT('Origin',(70.,0.,-40.));
#998=CARTESIAN_POINT('',(68.05,0.,-40.));
#999=CARTESIAN_POINT('Origin',(70.,0.,-40.));
#1000=CARTESIAN_POINT('',(68.05,6.7,-40.));
#1001=CARTESIAN_POINT('',(68.05,0.,-40.));
#1002=CARTESIAN_POINT('Origin',(70.,6.7,-40.));
#1003=CARTESIAN_POINT('Origin',(70.,6.7,-40.));
#1004=CARTESIAN_POINT('Origin',(25.,0.,-20.));
#1005=CARTESIAN_POINT('',(25.,0.,-20.));
#1006=CARTESIAN_POINT('',(25.,0.,20.));
#1007=CARTESIAN_POINT('',(25.,0.,-20.));
#1008=CARTESIAN_POINT('',(25.,10.,20.));
#1009=CARTESIAN_POINT('',(25.,0.,20.));
#1010=CARTESIAN_POINT('',(25.,10.,-20.));
#1011=CARTESIAN_POINT('',(25.,10.,-20.));
#1012=CARTESIAN_POINT('',(25.,0.,-20.));
#1013=CARTESIAN_POINT('Origin',(-25.,0.,-20.));
#1014=CARTESIAN_POINT('',(-25.,0.,-20.));
#1015=CARTESIAN_POINT('',(-25.,0.,-20.));
#1016=CARTESIAN_POINT('',(-25.,10.,-20.));
#1017=CARTESIAN_POINT('',(-25.,10.,-20.));
#1018=CARTESIAN_POINT('',(-25.,0.,-20.));
#1019=CARTESIAN_POINT('Origin',(-25.,0.,20.));
#1020=CARTESIAN_POINT('',(-25.,0.,20.));
#1021=CARTESIAN_POINT('',(-25.,0.,20.));
#1022=CARTESIAN_POINT('',(-25.,10.,20.));
#1023=CARTESIAN_POINT('',(-25.,10.,20.));
#1024=CARTESIAN_POINT('',(-25.,0.,20.));
#1025=CARTESIAN_POINT('Origin',(25.,0.,20.));
#1026=CARTESIAN_POINT('',(25.,0.,20.));
#1027=CARTESIAN_POINT('',(25.,10.,20.));
#1028=CARTESIAN_POINT('Origin',(80.,0.,-60.));
#1029=CARTESIAN_POINT('',(-80.,0.,-60.));
#1030=CARTESIAN_POINT('',(80.,0.,-60.));
#1031=CARTESIAN_POINT('',(-80.,0.,-60.));
#1032=CARTESIAN_POINT('',(-80.,0.,-60.));
#1033=CARTESIAN_POINT('',(80.,0.,-60.));
#1034=CARTESIAN_POINT('Origin',(80.,0.,-55.));
#1035=CARTESIAN_POINT('',(85.,0.,-55.));
#1036=CARTESIAN_POINT('Origin',(80.,0.,-55.));
#1037=CARTESIAN_POINT('',(85.,0.,-55.));
#1038=CARTESIAN_POINT('Origin',(85.,0.,55.));
#1039=CARTESIAN_POINT('',(85.,0.,55.));
#1040=CARTESIAN_POINT('',(85.,0.,-55.));
#1041=CARTESIAN_POINT('',(85.,0.,55.));
#1042=CARTESIAN_POINT('Origin',(80.,0.,55.));
#1043=CARTESIAN_POINT('',(80.,0.,60.));
#1044=CARTESIAN_POINT('Origin',(80.,0.,55.));
#1045=CARTESIAN_POINT('',(80.,0.,60.));
#1046=CARTESIAN_POINT('Origin',(-80.,0.,60.));
#1047=CARTESIAN_POINT('',(-80.,0.,60.));
#1048=CARTESIAN_POINT('',(80.,0.,60.));
#1049=CARTESIAN_POINT('',(-80.,0.,60.));
#1050=CARTESIAN_POINT('Origin',(-80.,0.,55.));
#1051=CARTESIAN_POINT('',(-85.,0.,55.));
#1052=CARTESIAN_POINT('Origin',(-80.,0.,55.));
#1053=CARTESIAN_POINT('',(-85.,0.,55.));
#1054=CARTESIAN_POINT('Origin',(-85.,0.,-55.));
#1055=CARTESIAN_POINT('',(-85.,0.,-55.));
#1056=CARTESIAN_POINT('',(-85.,0.,55.));
#1057=CARTESIAN_POINT('',(-85.,0.,-55.));
#1058=CARTESIAN_POINT('Origin',(-80.,0.,-55.));
#1059=CARTESIAN_POINT('Origin',(-80.,0.,-55.));
#1060=CARTESIAN_POINT('Origin',(-1.77635683940025E-14,10.,0.));
#1061=CARTESIAN_POINT('Origin',(-1.77635683940025E-14,0.,0.));
#1062=UNCERTAINTY_MEASURE_WITH_UNIT(LENGTH_MEASURE(0.01),#1066,
'DISTANCE_ACCURACY_VALUE',
'Maximum model space distance between geometric entities at asserted c
onnectivities');
#1063=UNCERTAINTY_MEASURE_WITH_UNIT(LENGTH_MEASURE(0.01),#1066,
'DISTANCE_ACCURACY_VALUE',
'Maximum model space distance between geometric entities at asserted c
onnectivities');
#1064=(
GEOMETRIC_REPRESENTATION_CONTEXT(3)
GLOBAL_UNCERTAINTY_ASSIGNED_CONTEXT((#1062))
GLOBAL_UNIT_ASSIGNED_CONTEXT((#1066,#1068,#1069))
REPRESENTATION_CONTEXT('','3D')
);
#1065=(
GEOMETRIC_REPRESENTATION_CONTEXT(3)
GLOBAL_UNCERTAINTY_ASSIGNED_CONTEXT((#1063))
GLOBAL_UNIT_ASSIGNED_CONTEXT((#1066,#1068,#1069))
REPRESENTATION_CONTEXT('','3D')
);
#1066=(
LENGTH_UNIT()
NAMED_UNIT(*)
SI_UNIT(.MILLI.,.METRE.)
);
#1067=(
LENGTH_UNIT()
NAMED_UNIT(*)
SI_UNIT($,.METRE.)
);
#1068=(
NAMED_UNIT(*)
PLANE_ANGLE_UNIT()
SI_UNIT($,.RADIAN.)
);
#1069=(
NAMED_UNIT(*)
SI_UNIT($,.STERADIAN.)
SOLID_ANGLE_UNIT()
);
#1070=SHAPE_DEFINITION_REPRESENTATION(#1071,#1072);
#1071=PRODUCT_DEFINITION_SHAPE('',$,#1074);
#1072=SHAPE_REPRESENTATION('',(#626),#1064);
#1073=PRODUCT_DEFINITION_CONTEXT('part definition',#1078,'design');
#1074=PRODUCT_DEFINITION('2026-03-31-12-30-21-113','Plate',#1075,#1073);
#1075=PRODUCT_DEFINITION_FORMATION('',$,#1080);
#1076=PRODUCT_RELATED_PRODUCT_CATEGORY('Plate','Plate',(#1080));
#1077=APPLICATION_PROTOCOL_DEFINITION('international standard',
'automotive_design',2009,#1078);
#1078=APPLICATION_CONTEXT(
'Core Data for Automotive Mechanical Design Process');
#1079=PRODUCT_CONTEXT('part definition',#1078,'mechanical');
#1080=PRODUCT('2026-03-31-12-30-21-113','Plate',$,(#1079));
#1081=PRESENTATION_STYLE_ASSIGNMENT((#1082));
#1082=SURFACE_STYLE_USAGE(.BOTH.,#1083);
#1083=SURFACE_SIDE_STYLE('',(#1084));
#1084=SURFACE_STYLE_FILL_AREA(#1085);
#1085=FILL_AREA_STYLE('Steel - Satin',(#1086));
#1086=FILL_AREA_STYLE_COLOUR('Steel - Satin',#1087);
#1087=COLOUR_RGB('Steel - Satin',0.627450980392157,0.627450980392157,0.627450980392157);
ENDSEC;
END-ISO-10303-21;
